<svg width="280" height="100" viewBox="0 0 280 100" fill="none" xmlns="http://www.w3.org/2000/svg">
<path d="M77.5359 33.7182C78.7277 32.5882 81.5672 29.3095 83.3913 25.2348C84.1386 23.5655 64.4607 14.6394 51.731 24.7408C47.7468 27.1712 39.8234 35.2685 40.003 48.2149C40.2275 64.398 45.9447 74.0567 71.9052 83C72.1124 80.07 70.0087 73.222 59.9354 69.27C58.6515 68.8838 55.5413 67.2598 53.3719 63.8529C55.6864 65.4201 61.3275 68.4625 66.6198 68.5715C71.9121 68.6805 76.1254 67.0441 77.4151 66.1526C79.5108 65.0169 84.1617 61.4544 85.9995 56.2894C86.011 55.9317 85.844 55.2401 85.084 55.3355C84.324 55.4309 83.0401 56.6131 82.4932 57.1923C80.8292 59.1286 75.1971 63.1459 66.7925 61.8939C56.8436 60.4119 52.9228 52.15 52.2664 46.9033C51.8307 43.4198 49.9692 30.7369 63.3035 24.7408C64.7486 24.3547 68.3401 23.9128 71.1452 25.2348C74.6515 26.8874 76.7414 30.8562 77.5359 33.7182Z" fill="white"/>
<path d="M51.7289 24.7409C58.0947 19.6894 66.1958 19.3967 72.6094 20.5737C75.8167 21.1623 78.6033 22.1186 80.5418 23.0325C81.5109 23.4893 82.269 23.9359 82.7618 24.3212C83.0081 24.5137 83.1893 24.6918 83.2973 24.8492C83.4047 25.0056 83.4438 25.1476 83.3919 25.2635C81.5682 29.338 78.7296 32.6161 77.5372 33.7468L77.5088 33.7737L77.4984 33.736C76.7054 30.8793 74.6205 26.922 71.1268 25.2752C69.7299 24.6167 68.1362 24.3972 66.7105 24.3907C65.2862 24.3842 64.0314 24.5903 63.3112 24.7825C56.6592 27.7747 53.7987 32.4338 52.6546 36.7791C51.5102 41.1259 52.0831 45.1597 52.3008 46.9001C52.9557 52.1359 56.8676 60.3783 66.7921 61.8569C75.179 63.1064 80.7976 59.0967 82.4553 57.1674L82.4557 57.167L82.456 57.1666C82.7299 56.8766 83.188 56.4358 83.6729 56.0554C83.9154 55.8652 84.165 55.6898 84.402 55.5559C84.6385 55.4221 84.8642 55.3287 85.0585 55.3043C85.252 55.28 85.4093 55.3056 85.5361 55.3648C85.6629 55.4238 85.7577 55.5157 85.8273 55.6215C85.966 55.8323 86.0053 56.0998 85.9994 56.2816L85.9993 56.2853L85.9981 56.2888C84.1598 61.4558 79.5095 65.0186 77.4126 66.1554C76.7649 66.6028 75.3882 67.2347 73.5138 67.7413C71.6378 68.2482 69.2615 68.6301 66.6156 68.5756C61.3928 68.468 55.8329 65.5047 53.4633 63.9208C55.5899 67.2014 58.5834 68.7958 59.8841 69.2082L59.9453 69.2272L59.9462 69.2274L59.9471 69.2278C70.0183 73.1796 72.1275 80.0302 71.9196 82.9693L71.9174 83L71.8884 82.99C58.9202 78.5219 51.004 73.8738 46.3023 68.3184C41.5997 62.762 40.1152 56.301 40.003 48.2138C39.8234 35.2701 47.743 27.1733 51.7289 24.7409ZM72.6009 20.6202C66.1935 19.4443 58.108 19.7385 51.7572 24.7788L51.756 24.7797L51.7548 24.7804C47.7801 27.2053 39.8708 35.2885 40.0501 48.2132C40.1623 56.2947 41.6456 62.7431 46.3382 68.2878C51.0282 73.8293 58.9262 78.4711 71.8745 82.9352C72.0638 80.0026 69.9496 73.2037 59.9308 69.2721C58.6429 68.8844 55.5319 67.2586 53.3619 63.8503L53.395 63.818C55.7059 65.3829 61.3366 68.4196 66.6166 68.5284C69.2575 68.5828 71.6292 68.2016 73.5015 67.6957C75.3743 67.1895 76.7458 66.559 77.3869 66.1157L77.388 66.115L77.3891 66.1144C79.4793 64.9816 84.1182 61.4274 85.9524 56.2765C85.9574 56.101 85.9188 55.8463 85.788 55.6475C85.7224 55.5478 85.6339 55.4624 85.5163 55.4076C85.3986 55.3528 85.2504 55.3278 85.0643 55.3512C84.879 55.3745 84.6597 55.4644 84.4251 55.597C84.1909 55.7294 83.9434 55.9033 83.702 56.0926C83.2192 56.4713 82.7629 56.9105 82.4903 57.1991C80.8226 59.1393 75.1889 63.1557 66.7852 61.9037C56.8323 60.4208 52.9105 52.1542 52.2541 46.9059C52.0364 45.1659 51.462 41.1237 52.6091 36.767C53.7565 32.409 56.6261 27.7373 63.2936 24.7387L63.2953 24.7379L63.2972 24.7374C64.021 24.544 65.281 24.3369 66.7107 24.3434C68.1404 24.35 69.7416 24.5701 71.1469 25.2325C74.6432 26.8805 76.7306 30.8261 77.533 33.6854C78.738 32.5337 81.5425 29.2799 83.3489 25.2441C83.3903 25.1516 83.3633 25.0285 83.2585 24.876C83.1544 24.7244 82.9774 24.5497 82.7328 24.3585C82.2438 23.9762 81.4892 23.5313 80.5217 23.0752C78.587 22.1632 75.8043 21.2081 72.6009 20.6202Z" fill="white"/>
<path d="M235.229 38.5613C235.876 38.5613 236.333 38.7139 236.6 39.0191C236.886 39.3052 237.029 39.8012 237.029 40.507V61.1086H246.2C246.848 61.1086 247.305 61.2612 247.571 61.5664C247.857 61.8525 248 62.3485 248 63.0543C248 63.7601 247.857 64.2656 247.571 64.5708C247.305 64.8569 246.848 65 246.2 65H223.8C223.152 65 222.686 64.8569 222.4 64.5708C222.133 64.2656 222 63.7601 222 63.0543C222 62.3485 222.133 61.8525 222.4 61.5664C222.686 61.2612 223.152 61.1086 223.8 61.1086H232.743V42.4527H225.514C224.867 42.4527 224.4 42.3096 224.114 42.0235C223.848 41.7183 223.714 41.2128 223.714 40.507C223.714 39.8012 223.848 39.3052 224.114 39.0191C224.4 38.7139 224.867 38.5613 225.514 38.5613H235.229ZM234.314 26C235.362 26 236.076 26.1431 236.457 26.4292C236.838 26.6963 237.029 27.1731 237.029 27.8599V31.5796C237.029 32.2663 236.838 32.7528 236.457 33.0389C236.076 33.3059 235.362 33.4395 234.314 33.4395C233.267 33.4395 232.552 33.3059 232.171 33.0389C231.79 32.7528 231.6 32.2663 231.6 31.5796V27.8599C231.6 27.1731 231.79 26.6963 232.171 26.4292C232.552 26.1431 233.267 26 234.314 26Z" fill="white"/>
<path d="M197.753 30C198.535 30 199.088 30.1462 199.412 30.4387C199.736 30.7311 199.898 31.2185 199.898 31.9009V40.6742H211.653C212.301 40.6742 212.759 40.8302 213.026 41.1422C213.312 41.4346 213.455 41.9415 213.455 42.6629C213.455 43.3842 213.312 43.9009 213.026 44.2128C212.759 44.5053 212.301 44.6515 211.653 44.6515H199.898V55.2965C199.898 57.5191 200.27 59.147 201.013 60.1803C201.776 61.2136 203.092 61.7303 204.96 61.7303C206.238 61.7303 207.582 61.4671 208.993 60.9407C210.404 60.4143 211.767 59.7124 213.083 58.8351C213.35 58.6401 213.645 58.5426 213.969 58.5426C214.618 58.5426 215.171 58.9911 215.628 59.8879C215.876 60.3948 216 60.8335 216 61.2039C216 61.8278 215.685 62.3347 215.056 62.7246C213.569 63.6799 211.91 64.4695 210.08 65.0934C208.249 65.6978 206.543 66 204.96 66C201.719 66 199.345 65.1422 197.839 63.4265C196.351 61.6913 195.608 59.108 195.608 55.6767V44.6515H189.802C189.154 44.6515 188.686 44.5053 188.4 44.2128C188.133 43.9009 188 43.3842 188 42.6629C188 41.9415 188.133 41.4346 188.4 41.1422C188.686 40.8302 189.154 40.6742 189.802 40.6742H195.608V31.9009C195.608 31.2185 195.77 30.7311 196.094 30.4387C196.418 30.1462 196.971 30 197.753 30Z" fill="white"/>
<path d="M178.527 38C179.312 38 179.866 38.1446 180.192 38.4339C180.517 38.7231 180.68 39.2052 180.68 39.8802V45.376C180.68 46.051 180.517 46.5331 180.192 46.8223C179.866 47.1116 179.312 47.2562 178.527 47.2562C177.876 47.2562 177.417 47.0055 177.149 46.5041C176.326 44.9229 175.131 43.814 173.561 43.1777C171.992 42.522 170.002 42.1942 167.591 42.1942C165.735 42.1942 164.281 42.5317 163.228 43.2066C162.195 43.8623 161.679 44.7879 161.679 45.9835C161.679 46.6006 161.87 47.1019 162.253 47.4876C162.654 47.8733 163.238 48.1915 164.003 48.4421C164.635 48.6543 165.362 48.8182 166.185 48.9339C167.027 49.0496 168.108 49.1749 169.428 49.3099C171.284 49.522 172.777 49.7245 173.906 49.9174C175.054 50.0909 176.135 50.3609 177.149 50.7273C178.68 51.2865 179.866 52.0964 180.708 53.157C181.569 54.2176 182 55.6157 182 57.3512C182 59.0868 181.56 60.6102 180.68 61.9215C179.819 63.2135 178.546 64.2163 176.862 64.9298C175.197 65.6433 173.198 66 170.863 66C168.797 66 166.979 65.7107 165.41 65.1322C163.841 64.5537 162.473 63.6763 161.305 62.5V64.1198C161.305 64.7948 161.143 65.2769 160.817 65.5661C160.492 65.8554 159.937 66 159.153 66C158.368 66 157.813 65.8554 157.488 65.5661C157.163 65.2769 157 64.7948 157 64.1198V57.1777C157 56.5028 157.163 56.0207 157.488 55.7314C157.813 55.4421 158.368 55.2975 159.153 55.2975C159.555 55.2975 159.87 55.3939 160.1 55.5868C160.33 55.7603 160.53 56.0592 160.703 56.4835C161.392 58.3347 162.54 59.6846 164.147 60.5331C165.754 61.3815 167.897 61.8058 170.576 61.8058C172.796 61.8058 174.499 61.4008 175.685 60.5909C176.872 59.781 177.465 58.7011 177.465 57.3512C177.465 56.6956 177.254 56.1556 176.834 55.7314C176.413 55.3072 175.81 54.9601 175.025 54.6901C174.356 54.478 173.581 54.3044 172.7 54.1694C171.839 54.0152 170.739 53.8705 169.4 53.7355C167.601 53.5427 166.099 53.3402 164.893 53.1281C163.688 52.916 162.578 52.6074 161.564 52.2025C160.167 51.6433 159.076 50.8719 158.292 49.8884C157.526 48.8857 157.144 47.584 157.144 45.9835C157.144 44.3058 157.574 42.8691 158.435 41.6736C159.315 40.4587 160.521 39.5427 162.052 38.9256C163.602 38.3085 165.352 38 167.304 38C169.16 38 170.854 38.2796 172.385 38.8388C173.935 39.3981 175.264 40.1791 176.374 41.1818V39.8802C176.374 39.2052 176.537 38.7231 176.862 38.4339C177.188 38.1446 177.742 38 178.527 38Z" fill="white"/>
<path d="M146.985 39C147.641 39 148.103 39.1522 148.373 39.4567C148.662 39.7421 148.807 40.2368 148.807 40.9408V61.4905H151.178C151.834 61.4905 152.296 61.6427 152.566 61.9471C152.855 62.2326 153 62.7273 153 63.4313C153 64.1353 152.855 64.6395 152.566 64.944C152.296 65.2294 151.834 65.3721 151.178 65.3721H146.58C145.925 65.3721 145.452 65.2294 145.163 64.944C144.893 64.6586 144.758 64.1638 144.758 63.4598V60.0063C143.486 61.9471 141.992 63.4313 140.276 64.4588C138.58 65.4863 136.748 66 134.782 66C133.027 66 131.504 65.629 130.213 64.8869C128.921 64.1258 127.928 63.0412 127.234 61.6332C126.54 60.2252 126.193 58.5793 126.193 56.6956V42.8816H123.822C123.166 42.8816 122.694 42.7389 122.405 42.4535C122.135 42.149 122 41.6448 122 40.9408C122 40.2368 122.135 39.7421 122.405 39.4567C122.694 39.1522 123.166 39 123.822 39H128.709C129.364 39 129.827 39.1522 130.097 39.4567C130.386 39.7421 130.531 40.2368 130.531 40.9408V56.2674C130.531 57.9609 130.926 59.3023 131.716 60.2918C132.507 61.2812 133.673 61.7759 135.215 61.7759C136.854 61.7759 138.377 61.3097 139.785 60.3774C141.211 59.445 142.349 58.1607 143.197 56.5243C144.045 54.8879 144.469 53.0613 144.469 51.0444V42.8816H140.363C139.707 42.8816 139.235 42.7389 138.946 42.4535C138.676 42.149 138.541 41.6448 138.541 40.9408C138.541 40.2368 138.676 39.7421 138.946 39.4567C139.235 39.1522 139.707 39 140.363 39H146.985Z" fill="white"/>
<path d="M96.9335 28C97.5829 28 98.0413 28.1504 98.3087 28.4512C98.5952 28.7332 98.7384 29.2221 98.7384 29.9177V43.9619C99.98 42.1382 101.413 40.747 103.036 39.7881C104.679 38.8105 106.445 38.3216 108.336 38.3216C110.075 38.3216 111.583 38.6977 112.863 39.4497C114.143 40.1829 115.127 41.2452 115.814 42.6364C116.502 44.0277 116.846 45.654 116.846 47.5152V61.1646H119.195C119.844 61.1646 120.303 61.315 120.57 61.6159C120.857 61.8979 121 62.3867 121 63.0823C121 63.7779 120.857 64.2762 120.57 64.577C120.303 64.859 119.844 65 119.195 65H109.912C109.263 65 108.795 64.859 108.508 64.577C108.241 64.2762 108.107 63.7779 108.107 63.0823C108.107 62.3867 108.241 61.8979 108.508 61.6159C108.795 61.315 109.263 61.1646 109.912 61.1646H112.548V47.9383C112.548 46.265 112.157 44.9395 111.373 43.9619C110.59 42.9842 109.435 42.4954 107.907 42.4954C106.283 42.4954 104.765 42.956 103.351 43.8773C101.957 44.7985 100.839 46.0676 99.9991 47.6845C99.1587 49.3013 98.7384 51.1062 98.7384 53.0991V61.1646H101.374C102.024 61.1646 102.482 61.315 102.75 61.6159C103.036 61.8979 103.179 62.3867 103.179 63.0823C103.179 63.7779 103.036 64.2762 102.75 64.577C102.482 64.859 102.024 65 101.374 65H92.0915C91.4421 65 90.9741 64.859 90.6876 64.577C90.4202 64.2762 90.2865 63.7779 90.2865 63.0823C90.2865 62.3867 90.4202 61.8979 90.6876 61.6159C90.9741 61.315 91.4421 61.1646 92.0915 61.1646H94.4409V31.8354H91.805C91.1556 31.8354 90.6876 31.6944 90.4011 31.4123C90.1337 31.1115 90 30.6133 90 29.9177C90 29.2221 90.1337 28.7332 90.4011 28.4512C90.6876 28.1504 91.1556 28 91.805 28H96.9335Z" fill="white"/>
<path d="M222 63.5817C222 62.8422 222.135 62.192 222.527 61.7711L222.528 61.7708L222.528 61.7703C222.942 61.3287 223.565 61.1634 224.273 61.1634V61.633C223.624 61.633 223.157 61.7858 222.87 62.0915C222.603 62.3781 222.469 62.8748 222.469 63.5817C222.469 64.2886 222.603 64.7949 222.87 65.1006C223.157 65.3872 223.624 65.5305 224.273 65.5305H246.727C247.376 65.5305 247.834 65.3872 248.101 65.1006C248.388 64.7949 248.531 64.2886 248.531 63.5817C248.531 62.8748 248.388 62.3781 248.101 62.0915C247.834 61.7858 247.376 61.633 246.727 61.633V61.1634C247.425 61.1634 248.045 61.3242 248.444 61.7703C248.856 62.1916 249 62.8425 249 63.5817C249 64.3311 248.852 64.9851 248.444 65.4209L248.444 65.421C248.045 65.8494 247.424 66 246.727 66H224.273C223.572 66 222.953 65.8477 222.538 65.4326L222.527 65.4216L222.517 65.4098C222.136 64.9745 222 64.3257 222 63.5817ZM237.533 40.9992C237.533 40.2923 237.39 39.7955 237.104 39.5089C236.836 39.2033 236.378 39.0504 235.729 39.0504V38.5809C236.428 38.5809 237.048 38.7417 237.446 39.1878C237.859 39.6091 238.003 40.26 238.003 40.9992V61.1634H246.727V61.633H237.533V40.9992ZM223.718 40.9992C223.718 40.2597 223.853 39.6094 224.245 39.1886L224.246 39.1882L224.246 39.1878C224.66 38.7461 225.283 38.5809 225.992 38.5809V39.0504C225.343 39.0504 224.875 39.2033 224.589 39.5089C224.321 39.7955 224.188 40.2923 224.188 40.9992C224.188 41.7061 224.321 42.2124 224.589 42.518C224.875 42.8046 225.343 42.9479 225.992 42.9479H233.238V61.633H224.273V61.1634H232.768V43.4175H225.992C225.29 43.4175 224.672 43.2652 224.257 42.8501L224.246 42.839L224.235 42.8272C223.855 42.392 223.718 41.7432 223.718 40.9992ZM235.729 38.5809V39.0504H225.992V38.5809H235.729ZM237.533 28.3323C237.533 27.6445 237.342 27.1669 236.961 26.8994C236.579 26.6128 235.863 26.4695 234.813 26.4695C233.763 26.4695 233.047 26.6128 232.665 26.8994C232.283 27.1669 232.092 27.6445 232.092 28.3323V32.0579C232.092 32.7456 232.283 33.2328 232.665 33.5194C233.047 33.7869 233.763 33.9206 234.813 33.9206C235.863 33.9206 236.579 33.7869 236.961 33.5194C237.342 33.2328 237.533 32.7456 237.533 32.0579V28.3323ZM238.003 32.0579C238.003 32.8249 237.788 33.4855 237.242 33.895L237.236 33.8997L237.23 33.9041C236.962 34.0917 236.614 34.2089 236.223 34.2819C235.828 34.3558 235.355 34.3902 234.813 34.3902C234.27 34.3902 233.798 34.3558 233.402 34.2819C233.011 34.2089 232.664 34.0917 232.396 33.9041L232.389 33.8997L232.383 33.895C231.837 33.4855 231.623 32.8249 231.623 32.0579V28.3323C231.623 27.5711 231.835 26.9117 232.389 26.5194C232.657 26.3202 233.005 26.1948 233.396 26.1166C233.794 26.0369 234.269 26 234.813 26C235.356 26 235.831 26.0369 236.229 26.1166C236.62 26.1948 236.968 26.3202 237.236 26.5194C237.791 26.9116 238.003 27.5711 238.003 28.3323V32.0579Z" fill="white"/>
<path d="M195.361 56.1854V45.6274H190.197C189.519 45.6274 188.921 45.4718 188.52 45.0478L188.51 45.0365L188.5 45.0244C188.132 44.5798 188 43.9169 188 43.1569C188 42.4013 188.13 41.7371 188.509 41.3071L188.51 41.3067L188.51 41.3063C188.91 40.8551 189.512 40.6863 190.197 40.6863V41.166C189.57 41.166 189.118 41.3221 188.841 41.6344C188.583 41.9272 188.453 42.4347 188.453 43.1569C188.453 43.879 188.583 44.3963 188.841 44.7086C189.118 45.0013 189.57 45.1477 190.197 45.1477H195.815V56.1854C195.815 59.6206 196.534 62.2068 197.973 63.9439C199.431 65.6615 201.728 66.5203 204.864 66.5203C206.396 66.5203 208.047 66.2178 209.818 65.6127C211.589 64.9881 213.194 64.1976 214.633 63.2412C215.242 62.8509 215.547 62.3434 215.547 61.7188C215.547 61.348 215.427 60.9088 215.187 60.4013C214.744 59.5035 214.209 59.0545 213.582 59.0545C213.268 59.0545 212.982 59.1521 212.724 59.3473C211.451 60.2256 210.132 60.9283 208.766 61.4553C207.401 61.9823 206.1 62.2458 204.864 62.2458V61.7661C206.039 61.7661 207.287 61.5157 208.611 61.0047C209.941 60.4914 211.227 59.8066 212.471 58.949C212.803 58.7017 213.177 58.5749 213.582 58.5749C214.444 58.5749 215.093 59.1949 215.566 60.1344L215.589 60.1794L215.592 60.1868C215.849 60.7288 216 61.2444 216 61.7188C216 62.5454 215.583 63.1912 214.875 63.6474L214.736 63.7387C213.299 64.6763 211.707 65.4521 209.961 66.0678L209.959 66.0685L209.957 66.0692C208.151 66.6865 206.452 67 204.864 67C201.657 67 199.212 66.1212 197.636 64.2644L197.634 64.2622L197.632 64.26C196.093 62.4014 195.361 59.6818 195.361 56.1854ZM199.966 55.8047V45.1477H211.34C211.967 45.1477 212.41 45.0013 212.668 44.7086C212.945 44.3963 213.084 43.879 213.084 43.1569C213.084 42.4347 212.945 41.9272 212.668 41.6344C212.41 41.3221 211.967 41.166 211.34 41.166V40.6863C212.015 40.6863 212.614 40.8506 212.999 41.3063C213.398 41.7367 213.537 42.4017 213.537 43.1569C213.537 43.9224 213.394 44.5906 213 45.0358L213 45.0359C212.614 45.4736 212.014 45.6274 211.34 45.6274H200.419V55.8047C200.419 57.9928 200.776 59.4967 201.409 60.4078C202.027 61.2713 203.13 61.7661 204.864 61.7661V62.2458C203.056 62.2458 201.783 61.7286 201.045 60.6941C200.326 59.6596 199.966 58.0298 199.966 55.8047ZM199.966 32.3827C199.966 31.6996 199.809 31.2116 199.495 30.9188C199.182 30.6261 198.647 30.4797 197.89 30.4797C197.134 30.4797 196.599 30.6261 196.285 30.9188C195.972 31.2116 195.815 31.6996 195.815 32.3827V41.166H190.197V40.6863H195.361V32.3827C195.361 31.6365 195.531 30.9828 195.985 30.5592C196.427 30.1471 197.103 30 197.89 30C198.677 30 199.354 30.1471 199.795 30.5592C200.249 30.9828 200.419 31.6365 200.419 32.3827V40.6863H211.34V41.166H199.966V32.3827Z" fill="white"/>
<path d="M157 64.6417V57.687C157 56.9485 157.177 56.3015 157.649 55.8821C158.107 55.4743 158.811 55.3287 159.629 55.3287C160.099 55.3287 160.532 55.441 160.87 55.7207C161.183 55.9603 161.418 56.3297 161.601 56.7687L161.619 56.8118L161.621 56.8183L161.624 56.8248C162.277 58.5797 163.354 59.8366 164.853 60.6279C166.372 61.4293 168.436 61.8487 171.079 61.8487V62.3235C168.394 62.3235 166.246 61.8984 164.635 61.0484C163.024 60.1984 161.873 58.8461 161.182 56.9916C161.01 56.5665 160.808 56.2671 160.578 56.0932C160.348 55.9001 160.032 55.8035 159.629 55.8035C158.843 55.8035 158.286 55.9484 157.96 56.2381C157.634 56.5279 157.471 57.0109 157.471 57.687V64.6417C157.471 65.3178 157.634 65.8008 157.96 66.0906C158.286 66.3803 158.843 66.5252 159.629 66.5252C160.415 66.5252 160.972 66.3803 161.298 66.0906C161.624 65.8008 161.787 65.3178 161.787 64.6417V63.0189C162.957 64.1973 164.328 65.0763 165.9 65.6559C167.473 66.2355 169.295 66.5252 171.367 66.5252C173.706 66.5252 175.711 66.1678 177.379 65.4531C179.067 64.7383 180.342 63.7337 181.205 62.4394C182.088 61.1257 182.529 59.5995 182.529 57.8609C182.529 56.1222 182.097 54.7216 181.234 53.6591C180.39 52.5966 179.201 51.7852 177.667 51.225C176.65 50.8579 175.567 50.5875 174.416 50.4136C173.284 50.2204 171.788 50.0176 169.928 49.8051C168.605 49.6698 167.521 49.5443 166.677 49.4284C165.853 49.3124 165.124 49.1482 164.491 48.9357C163.724 48.6846 163.139 48.3658 162.736 47.9795C162.352 47.5931 162.161 47.0908 162.161 46.4726C162.161 45.2749 162.678 44.3476 163.714 43.6908C164.769 43.0146 166.227 42.6765 168.087 42.6765C170.503 42.6765 172.498 43.005 174.071 43.6618C175.643 44.2993 176.842 45.4101 177.667 46.9942C177.935 47.4965 178.396 47.7476 179.048 47.7476C179.834 47.7476 180.39 47.6028 180.716 47.313C181.042 47.0232 181.205 46.5402 181.205 45.8641V40.3583C181.205 39.6822 181.042 39.1992 180.716 38.9094C180.39 38.6197 179.834 38.4748 179.048 38.4748C178.261 38.4748 177.705 38.6197 177.379 38.9094C177.053 39.1992 176.89 39.6822 176.89 40.3583V41.6623C175.778 40.6578 174.445 39.8754 172.891 39.3151C171.357 38.7549 169.66 38.4748 167.799 38.4748C165.843 38.4748 164.088 38.7839 162.535 39.4021C161 40.0203 159.792 40.9379 158.91 42.1549C158.047 43.3527 157.615 44.7919 157.615 46.4726C157.615 48.0761 157.999 49.3801 158.766 50.3846C159.552 51.3699 160.645 52.1426 162.046 52.7028C163.062 53.1085 164.174 53.4176 165.383 53.6301C166.591 53.8426 168.096 54.0455 169.899 54.2387C171.242 54.3739 172.345 54.5188 173.208 54.6733C174.09 54.8086 174.867 54.9824 175.538 55.1949C176.324 55.4654 176.928 55.8131 177.35 56.2381C177.772 56.6631 177.983 57.2041 177.983 57.8609C177.983 59.2132 177.389 60.295 176.2 61.1064C175.011 61.9178 173.304 62.3235 171.079 62.3235V61.8487C173.257 61.8487 174.856 61.4496 175.935 60.7133C177.006 59.983 177.512 59.0431 177.512 57.8609C177.512 57.3171 177.342 56.9011 177.017 56.5739C176.663 56.217 176.131 55.9013 175.39 55.6459C174.749 55.4432 173.998 55.2747 173.137 55.1427L173.131 55.1418L173.125 55.1408C172.278 54.9891 171.189 54.8457 169.852 54.7111L169.849 54.7108C168.041 54.517 166.524 54.3128 165.302 54.0978C164.065 53.8804 162.922 53.5632 161.872 53.1442L161.871 53.1441C160.411 52.5596 159.245 51.743 158.399 50.6821L158.395 50.6781L158.392 50.6741C157.547 49.5667 157.144 48.1526 157.144 46.4726C157.144 44.7059 157.599 43.1656 158.528 41.8761L158.529 41.8755L158.529 41.875C159.469 40.5785 160.752 39.6089 162.36 38.9612L162.36 38.9609L162.361 38.9605C163.979 38.3169 165.794 38 167.799 38C169.706 38 171.458 38.2871 173.05 38.8681C174.308 39.3217 175.432 39.9187 176.419 40.6609V40.3583C176.419 39.6198 176.595 38.9728 177.067 38.5535C177.526 38.1456 178.23 38 179.048 38C179.866 38 180.569 38.1456 181.028 38.5535C181.5 38.9728 181.677 39.6198 181.677 40.3583V45.8641C181.677 46.6027 181.5 47.2496 181.028 47.669C180.569 48.0768 179.866 48.2224 179.048 48.2224C178.254 48.2224 177.617 47.9017 177.252 47.2193L177.251 47.217L177.249 47.2147C176.474 45.7253 175.358 44.6955 173.895 44.1022L173.892 44.1013L173.89 44.1003C172.393 43.4752 170.466 43.1513 168.087 43.1513C166.275 43.1513 164.918 43.4818 163.967 44.0913L163.965 44.0925C163.062 44.6655 162.632 45.4437 162.632 46.4726C162.632 46.9807 162.785 47.3551 163.066 47.64C163.4 47.9587 163.912 48.247 164.637 48.4842L164.638 48.4848L164.64 48.4853C165.24 48.6867 165.94 48.8453 166.742 48.9581H166.742C167.474 49.0586 168.39 49.1668 169.492 49.2826L169.976 49.3327L169.978 49.333L169.981 49.3333C171.843 49.5459 173.346 49.7496 174.489 49.9446C175.63 50.1171 176.71 50.3829 177.727 50.7429L177.826 50.7781L177.827 50.7786C179.426 51.3624 180.694 52.2189 181.602 53.3625H181.602C182.548 54.5298 183 56.0445 183 57.8609C183 59.6848 182.536 61.3057 181.596 62.7054L181.596 62.7054C180.673 64.0891 179.318 65.147 177.562 65.8907L177.562 65.8907C175.821 66.6361 173.751 67 171.367 67C169.253 67 167.374 66.7044 165.739 66.1018C164.45 65.6268 163.289 64.9572 162.258 64.0942V64.6417C162.258 65.3802 162.081 66.0272 161.609 66.4465C161.151 66.8544 160.447 67 159.629 67C158.811 67 158.107 66.8544 157.649 66.4465C157.177 66.0272 157 65.3802 157 64.6417Z" fill="white"/>
<path d="M152.525 63.9566C152.525 63.251 152.381 62.7551 152.091 62.469C151.821 62.1639 151.357 62.0113 150.701 62.0113V61.5426C151.407 61.5426 152.034 61.7032 152.437 62.1486C152.854 62.5691 153 63.2188 153 63.9566C153 64.7047 152.85 65.3575 152.438 65.7926L152.438 65.7926C152.034 66.2203 151.406 66.3706 150.701 66.3706H146.095C145.386 66.3706 144.76 66.2186 144.34 65.8043L144.334 65.7985L144.329 65.7926C143.932 65.3725 143.796 64.7234 143.796 63.9852V61.9979C142.688 63.4122 141.433 64.5447 140.027 65.3872C138.254 66.461 136.335 67 134.277 67C132.451 67 130.84 66.6129 129.462 65.8207L129.457 65.818C128.08 65.0058 127.024 63.848 126.291 62.3594C125.558 60.8726 125.2 59.1502 125.2 57.2053V43.828H123.299C122.59 43.828 121.964 43.676 121.545 43.2616L121.533 43.2506L121.523 43.2388C121.138 42.8043 121 42.1567 121 41.414C121 40.6758 121.136 40.0267 121.533 39.6066L121.534 39.6062L121.534 39.6058C121.952 39.1649 122.583 39 123.299 39V39.4687C122.643 39.4687 122.17 39.6213 121.88 39.9264C121.61 40.2125 121.475 40.7084 121.475 41.414C121.475 42.1197 121.61 42.6251 121.88 42.9302C122.17 43.2163 122.643 43.3593 123.299 43.3593H125.675V57.2053C125.675 59.0934 126.022 60.7431 126.717 62.1544C127.412 63.5657 128.407 64.6527 129.701 65.4156C130.995 66.1594 132.52 66.5313 134.277 66.5313C136.247 66.5313 138.081 66.0164 139.781 64.9865C141.499 63.9566 142.996 62.469 144.27 60.5237V63.9852C144.27 64.6909 144.405 65.1867 144.676 65.4728C144.965 65.7589 145.439 65.9019 146.095 65.9019H150.701C151.357 65.9019 151.821 65.7589 152.091 65.4728C152.381 65.1677 152.525 64.6623 152.525 63.9566ZM130.019 56.7762V41.414C130.019 40.7084 129.875 40.2125 129.585 39.9264C129.315 39.6213 128.851 39.4687 128.195 39.4687V39C128.901 39 129.528 39.1605 129.931 39.6058C130.348 40.0264 130.494 40.6761 130.494 41.414V56.7762C130.494 58.4043 130.873 59.6351 131.58 60.5196C132.262 61.3749 133.279 61.8287 134.712 61.8287V62.2974C133.167 62.2974 131.999 61.8015 131.207 60.8098C130.415 59.8181 130.019 58.4735 130.019 56.7762ZM143.506 51.541V43.828H139.868C139.158 43.828 138.532 43.676 138.113 43.2616L138.102 43.2506L138.091 43.2388C137.706 42.8043 137.568 42.1567 137.568 41.414C137.568 40.6758 137.704 40.0267 138.101 39.6066L138.102 39.6062L138.102 39.6058C138.521 39.1649 139.151 39 139.868 39V39.4687C139.211 39.4687 138.738 39.6213 138.448 39.9264C138.178 40.2125 138.043 40.7084 138.043 41.414C138.043 42.1197 138.178 42.6251 138.448 42.9302C138.738 43.2163 139.211 43.3593 139.868 43.3593H143.981V51.541C143.981 53.5626 143.556 55.3935 142.706 57.0336C141.857 58.6738 140.717 59.9611 139.288 60.8956C137.879 61.8301 136.353 62.2974 134.712 62.2974V61.8287C136.256 61.8287 137.689 61.391 139.024 60.5065L139.026 60.5048C140.381 59.6187 141.468 58.3951 142.284 56.8202C143.096 55.2523 143.506 53.4957 143.506 51.541ZM148.325 41.414C148.325 40.7084 148.181 40.2125 147.891 39.9264C147.621 39.6213 147.157 39.4687 146.501 39.4687V39C147.207 39 147.834 39.1605 148.237 39.6058C148.654 40.0264 148.8 40.6761 148.8 41.414V61.5426H150.701V62.0113H148.325V41.414ZM146.501 39V39.4687H139.868V39H146.501ZM128.195 39V39.4687H123.299V39H128.195Z" fill="white"/>
<path d="M89.2871 63.6155C89.2871 62.8863 89.422 62.2452 89.8154 61.8302L89.8158 61.8298L89.8162 61.8294C90.2309 61.3939 90.8556 61.231 91.5658 61.231V61.694C90.9152 61.694 90.4463 61.8447 90.1592 62.1461C89.8913 62.4287 89.7574 62.9185 89.7574 63.6155C89.7574 64.3125 89.8913 64.8117 90.1592 65.1132C90.4463 65.3957 90.9152 65.537 91.5658 65.537H100.866C101.517 65.537 101.976 65.3957 102.244 65.1132C102.531 64.8117 102.675 64.3125 102.675 63.6155C102.675 62.9185 102.531 62.4287 102.244 62.1461C101.976 61.8447 101.517 61.694 100.866 61.694V61.231C101.567 61.231 102.188 61.3896 102.588 61.8294C103.001 62.2448 103.145 62.8866 103.145 63.6155C103.145 64.3544 102.997 64.9993 102.588 65.429L102.588 65.4291C102.188 65.8515 101.565 66 100.866 66H91.5658C90.8627 66 90.2425 65.8498 89.8267 65.4405L89.8156 65.4296L89.8053 65.418C89.4238 64.9888 89.2871 64.3491 89.2871 63.6155ZM107.142 63.6155C107.142 62.8863 107.277 62.2452 107.67 61.8302L107.671 61.8298L107.671 61.8294C108.086 61.3939 108.71 61.231 109.421 61.231V61.694C108.77 61.694 108.301 61.8447 108.014 62.1461C107.746 62.4287 107.612 62.9185 107.612 63.6155C107.612 64.3125 107.746 64.8117 108.014 65.1132C108.301 65.3957 108.77 65.537 109.421 65.537H118.721C119.372 65.537 119.831 65.3957 120.099 65.1132C120.386 64.8117 120.53 64.3125 120.53 63.6155C120.53 62.9185 120.386 62.4287 120.099 62.1461C119.831 61.8447 119.372 61.694 118.721 61.694V61.231C119.421 61.231 120.043 61.3896 120.442 61.8294C120.856 62.2448 121 62.8866 121 63.6155C121 64.3544 120.852 64.9993 120.443 65.429L120.443 65.4291C120.042 65.8515 119.42 66 118.721 66H109.421C108.718 66 108.097 65.8498 107.682 65.4405L107.67 65.4296L107.66 65.418C107.279 64.9888 107.142 64.3491 107.142 63.6155ZM116.367 48.0173C116.367 46.1523 116.023 44.5227 115.334 43.1287C114.645 41.7347 113.659 40.6703 112.377 39.9356C111.095 39.182 109.583 38.8053 107.842 38.8053C105.947 38.8053 104.177 39.2951 102.531 40.2747C100.905 41.2354 99.4694 42.6295 98.2255 44.4568V30.3845C98.2255 29.6875 98.082 29.1977 97.7949 28.9151C97.527 28.6137 97.0677 28.463 96.417 28.463V28C97.1172 28 97.7388 28.1586 98.1382 28.5984C98.5515 29.0138 98.6958 29.6556 98.6958 30.3845V43.0383C99.7651 41.7177 100.962 40.6616 102.289 39.8777C104.007 38.8556 105.861 38.3423 107.842 38.3423C109.652 38.3423 111.248 38.7342 112.614 39.5355C113.982 40.3193 115.03 41.4549 115.757 42.9261C116.483 44.3948 116.838 46.0962 116.838 48.0173V61.231H118.721V61.694H116.367V48.0173ZM111.591 48.4411C111.591 46.8329 111.215 45.6172 110.515 44.7435C109.839 43.8986 108.832 43.4504 107.411 43.4504C105.882 43.4504 104.45 43.8825 103.108 44.7572C101.784 45.6322 100.716 46.841 99.9072 48.3977C99.1023 49.9464 98.6958 51.6815 98.6958 53.6123V61.231H100.866V61.694H98.2255V53.6123C98.2255 51.6154 98.6465 49.8069 99.4885 48.1868C100.331 46.5667 101.45 45.2951 102.847 44.372C104.263 43.449 105.785 42.9874 107.411 42.9874C108.942 42.9874 110.1 43.4772 110.885 44.4568C111.669 45.4364 112.062 46.7645 112.062 48.4411V61.694H109.421V61.231H111.591V48.4411ZM89 30.3845C89 29.6553 89.1349 29.0142 89.5284 28.5992L89.5287 28.5988L89.5291 28.5984C89.9439 28.1629 90.5686 28 91.2788 28V28.463C90.6281 28.463 90.1592 28.6137 89.8722 28.9151C89.6043 29.1977 89.4703 29.6875 89.4703 30.3845C89.4703 31.0815 89.6043 31.5807 89.8722 31.8822C90.1592 32.1647 90.6281 32.306 91.2788 32.306H93.9197V61.694H91.5658V61.231H93.4494V32.769H91.2788C90.5757 32.769 89.9554 32.6188 89.5396 32.2095L89.5285 32.1986L89.5183 32.187C89.1368 31.7578 89 31.1181 89 30.3845ZM96.417 28V28.463H91.2788V28H96.417Z" fill="white"/>
</svg>
