<svg width="280" height="100" viewBox="0 0 280 100" fill="none" xmlns="http://www.w3.org/2000/svg">
<path d="M61.9496 40.7094C58.6492 40.7094 57.1541 41.9972 55.952 43.0354C54.8504 43.986 53.81 44.8841 50.4528 45.3134C47.1 44.8884 46.0596 43.9904 44.958 43.0398C43.7558 42.0016 42.2652 40.7137 38.9604 40.7137C33.6711 40.7137 29.3652 45.0286 29.3652 50.3291C29.3652 55.6297 33.6711 59.9445 38.9604 59.9445C42.2608 59.9445 43.7558 58.6523 44.9536 57.6184C46.0552 56.6679 47.0956 55.7698 50.4528 55.3449C53.81 55.7698 54.8548 56.6679 55.952 57.6184C57.1541 58.6566 58.6448 59.9445 61.9496 59.9445C67.2389 59.9445 71.5448 55.6297 71.5448 50.3291C71.5448 45.0286 67.2389 40.7137 61.9496 40.7137V40.7094Z" fill="#F6F5F3"/>
<path d="M28.8535 42.2469C28.8535 40.3939 29.1989 39.1717 29.8677 38.5672C30.5365 37.9671 32.0315 37.6648 34.3658 37.6648C39.0607 37.6648 42.0245 37.5641 43.266 37.3626C45.185 37.0384 46.6626 36.4777 47.703 35.6936C48.4811 35.1022 49.198 34.2611 49.8449 33.1616C50.1203 32.6928 50.7804 32.7016 51.0514 33.1703C51.847 34.5634 52.9093 35.6103 54.2425 36.32C55.9343 37.2136 58.7057 37.6648 62.5526 37.6648C65.9928 37.6648 68.0561 37.6823 68.7512 37.7174C68.773 37.7174 68.7949 37.7174 68.8168 37.7218C70.0189 37.8707 70.8538 38.2299 71.3347 38.8038C71.8199 39.3952 72.056 40.5341 72.056 42.2382V42.374C72.056 42.7595 72.3707 43.0749 72.7554 43.0749H75.6012C75.9858 43.0749 76.3006 42.7595 76.3006 42.374V41.5636C76.3006 39.8069 76.1519 38.5278 75.8678 37.7349C75.4525 36.596 74.7924 35.6366 73.8701 34.8831C72.9521 34.1297 71.7806 33.6434 70.3686 33.42C68.9566 33.1922 66.6311 33.0696 63.4093 33.0521C60.1833 33.0345 57.9495 32.8768 56.7255 32.5921C55.484 32.3074 54.5136 31.7379 53.7923 30.8705C53.189 30.1346 52.8262 29.2278 52.7038 28.1327C52.6645 27.7778 52.3672 27.5062 52.0088 27.5062H48.9051C48.5466 27.5062 48.2494 27.7778 48.21 28.137C48.092 29.2409 47.7379 30.1652 47.1303 30.9012C46.4265 31.7773 45.4517 32.3687 44.219 32.649C42.9775 32.9338 40.8661 33.0915 37.8717 33.109C34.8773 33.1178 32.9058 33.166 31.9485 33.2492C30.4403 33.4156 29.2382 33.7091 28.3202 34.1516C27.411 34.5809 26.6766 35.1285 26.1258 35.7724C25.5881 36.4164 25.1641 37.2443 24.8756 38.2474C24.7007 38.9308 24.6133 40.0347 24.6133 41.5811V42.3827C24.6133 42.7682 24.928 43.0836 25.3127 43.0836H28.1541C28.5388 43.0836 28.8535 42.7682 28.8535 42.3827V42.2557V42.2469Z" fill="white"/>
<path d="M72.056 58.7617C72.056 60.4658 71.8199 61.6048 71.3347 62.1961C70.8538 62.77 70.0145 63.1292 68.8168 63.2781C68.7949 63.2781 68.773 63.2825 68.7512 63.2825C68.0561 63.3176 65.9885 63.3351 62.5526 63.3351C58.7057 63.3351 55.9343 63.7863 54.2425 64.6755C52.9093 65.3896 51.847 66.4365 51.0514 67.8296C50.7804 68.2983 50.1203 68.3071 49.8449 67.8383C49.198 66.7388 48.4854 65.8977 47.703 65.302C46.6626 64.5178 45.185 63.9615 43.266 63.6373C42.0245 63.4358 39.0607 63.3351 34.3658 63.3351C32.0315 63.3351 30.5365 63.0328 29.8677 62.4327C29.1989 61.8238 28.8535 60.6016 28.8535 58.753V58.6259C28.8535 58.2405 28.5388 57.925 28.1541 57.925H25.3127C24.928 57.925 24.6133 58.2405 24.6133 58.6259V59.4232C24.6133 60.9696 24.7007 62.0735 24.8756 62.7568C25.1597 63.7644 25.5837 64.5923 26.1258 65.2363C26.6809 65.8802 27.411 66.4234 28.3202 66.8571C29.2382 67.2995 30.4403 67.593 31.9485 67.7595C32.9014 67.8383 34.8773 67.8865 37.8717 67.8953C40.8661 67.9172 42.9775 68.0749 44.219 68.3552C45.4517 68.64 46.4221 69.2314 47.1303 70.1031C47.7379 70.8434 48.092 71.7633 48.21 72.8716C48.2494 73.2308 48.5466 73.5024 48.9051 73.5024H52.0088C52.3672 73.5024 52.6645 73.2308 52.7038 72.8716C52.8262 71.7765 53.189 70.8697 53.7923 70.1338C54.5092 69.2664 55.484 68.6969 56.7255 68.4122C57.9539 68.1274 60.1833 67.9698 63.4093 67.9522C66.6311 67.9347 68.9566 67.812 70.3686 67.5843C71.7849 67.3608 72.9521 66.8746 73.8701 66.1168C74.7924 65.3633 75.4525 64.4083 75.8678 63.265C76.1519 62.4765 76.3006 61.193 76.3006 59.4364V58.6303C76.3006 58.2448 75.9858 57.9294 75.6012 57.9294H72.7554C72.3707 57.9294 72.056 58.2448 72.056 58.6303V58.7661V58.7617Z" fill="white"/>
<path d="M39.362 47.5037C38.9468 47.5037 38.549 47.5913 38.1993 47.7534C38.3916 47.933 38.5096 48.1914 38.5096 48.4762C38.5096 49.0237 38.0681 49.4618 37.5261 49.4618C37.2376 49.4618 36.9796 49.3391 36.8004 49.142C36.6387 49.5056 36.5469 49.9042 36.5469 50.3248C36.5469 51.8799 37.8058 53.1459 39.362 53.1459C40.9183 53.1459 42.1772 51.8799 42.1772 50.3248C42.1772 48.7697 40.9183 47.5037 39.362 47.5037ZM40.6298 52.4537C40.2582 52.4537 39.9653 52.1602 39.9653 51.7879C39.9653 51.4155 40.2582 51.122 40.6298 51.122C41.0013 51.122 41.2942 51.4199 41.2942 51.7879C41.2942 52.1559 40.9969 52.4537 40.6298 52.4537Z" fill="#8EC4AD"/>
<path d="M59.0245 49.142C58.8584 49.5056 58.7666 49.9042 58.7666 50.3204C58.7666 51.8755 60.0299 53.1415 61.5818 53.1415C63.1336 53.1415 64.4013 51.8755 64.4013 50.3204C64.4013 48.7653 63.138 47.4993 61.5818 47.4993C61.1665 47.4993 60.7731 47.5869 60.419 47.749C60.6113 47.9286 60.7381 48.187 60.7381 48.4718C60.7381 49.0193 60.2966 49.4574 59.7502 49.4574C59.466 49.4574 59.2037 49.3347 59.0289 49.142M62.1894 51.7835C62.1894 51.4155 62.4867 51.1176 62.8538 51.1176C63.221 51.1176 63.5227 51.4155 63.5227 51.7835C63.5227 52.1515 63.2254 52.4493 62.8538 52.4493C62.4823 52.4493 62.1894 52.1558 62.1894 51.7835Z" fill="#8EC4AD"/>
<path d="M61.9494 43.1625C56.778 43.1625 58.5091 46.8553 50.4526 47.784C42.4005 46.8597 44.1316 43.1625 38.9602 43.1625C35.0172 43.1625 31.8174 46.3691 31.8174 50.3204C31.8174 54.2717 35.0172 57.4826 38.9602 57.4826C44.1272 57.4826 42.4005 53.7854 50.4526 52.8611C58.5091 53.781 56.778 57.4826 61.9494 57.4826C65.8924 57.4826 69.0966 54.276 69.0966 50.3204C69.0966 46.3647 65.8967 43.1625 61.9494 43.1625M39.3624 54.5257C37.0456 54.5257 35.1659 52.6421 35.1659 50.3204C35.1659 47.9986 37.0456 46.115 39.3624 46.115C41.6792 46.115 43.5589 47.9986 43.5589 50.3204C43.5589 52.6421 41.6792 54.5257 39.3624 54.5257ZM61.5472 54.5257C59.2304 54.5257 57.3507 52.6421 57.3507 50.3204C57.3507 47.9986 59.2304 46.115 61.5472 46.115C63.864 46.115 65.7394 47.9986 65.7394 50.3204C65.7394 52.6421 63.864 54.5257 61.5472 54.5257" fill="#8EC4AD"/>
<path d="M74.792 50.4605C76.9165 49.9962 79.0541 51.1176 79.8628 53.1458C77.7339 53.6189 75.6051 52.48 74.792 50.4605Z" fill="white"/>
<path d="M83.5921 46.5705C81.5813 49.0018 77.9486 50.6182 74.7969 50.4605C76.8033 48.0249 80.4447 46.4216 83.5921 46.5705Z" fill="white"/>
<path d="M115.822 41.2394H109.444C107.967 41.2394 107.434 41.7432 107.434 43.3815V46.2158H115.569C115.914 46.2158 116.198 46.5005 116.198 46.8466V49.8385C116.198 50.1846 115.914 50.4693 115.569 50.4693H107.434V59.6598C107.434 60.0059 107.149 60.2906 106.804 60.2906H102.721C102.376 60.2906 102.092 60.0059 102.092 59.6598V43.3815C102.092 37.6517 105.703 36.6442 109.759 36.6442C113.151 36.6442 114.725 36.8939 115.822 37.0516C116.264 37.1129 116.452 37.2706 116.452 37.6824V40.6086C116.452 40.9547 116.168 41.2394 115.822 41.2394V41.2394Z" fill="white"/>
<path d="M126.187 60.2862H122.353C122.008 60.2862 121.693 59.9708 121.693 59.6247V36.7668C121.693 36.4207 122.008 36.136 122.353 36.136H126.187C126.532 36.136 126.786 36.4207 126.786 36.7668V59.6247C126.786 59.9708 126.537 60.2862 126.187 60.2862Z" fill="white"/>
<path d="M146.956 60.2862H143.437C143.091 60.2862 142.807 60.0015 142.807 59.6554V58.902C141.081 60.1285 139.699 60.5403 137.688 60.5403C133.133 60.5403 132.128 57.36 132.128 53.3912V42.9084C132.128 42.5623 132.443 42.2469 132.788 42.2469H136.591C136.936 42.2469 137.221 42.5623 137.221 42.9084V53.3912C137.221 55.5946 137.627 56.3174 139.546 56.3174C140.455 56.3174 141.43 55.875 142.501 55.3099V42.904C142.501 42.558 142.785 42.2426 143.131 42.2426H146.934C147.279 42.2426 147.594 42.558 147.594 42.904V59.651C147.594 59.9971 147.31 60.2818 146.964 60.2818L146.956 60.2862Z" fill="white"/>
<path d="M168.974 60.2862H164.231C163.885 60.2862 163.697 60.0979 163.413 59.6248L160.305 54.7448L157.385 59.6554C157.101 60.1285 156.913 60.2862 156.568 60.2862H152.358C152.139 60.2862 152.013 60.1285 152.013 59.9095C152.013 59.8482 152.013 59.7518 152.074 59.6554L157.573 50.903L152.231 42.9084C152.201 42.8471 152.17 42.7814 152.17 42.7201C152.17 42.4704 152.389 42.2469 152.642 42.2469H157.324C157.669 42.2469 157.857 42.501 158.141 42.9084L160.939 47.254L163.514 42.9084C163.798 42.4353 163.986 42.2469 164.331 42.2469H168.541C168.759 42.2469 168.917 42.4353 168.917 42.6543C168.917 42.7507 168.917 42.812 168.856 42.904L163.671 51.1527L169.358 59.6204C169.389 59.6817 169.42 59.7474 169.42 59.8394C169.42 60.0584 169.232 60.2819 168.978 60.2819L168.974 60.2862Z" fill="white"/>
<path d="M191.465 60.2862H188.388C187.728 60.2862 187.255 60.1592 186.753 59.3093L179.588 46.9035C179.461 46.7151 179.4 46.6494 179.304 46.6494C179.208 46.6494 179.147 46.7108 179.147 46.9035V59.6554C179.147 60.0015 178.862 60.2862 178.517 60.2862H174.81C174.465 60.2862 174.181 60.0015 174.181 59.6554V38.0897C174.181 37.4283 174.714 36.8938 175.374 36.8938H178.548C179.177 36.8938 179.492 37.2092 179.868 37.8707L187.312 50.8417C187.439 51.03 187.47 51.0913 187.561 51.0913C187.623 51.0913 187.719 51.03 187.719 50.8066V37.4896C187.719 37.1435 188.003 36.8895 188.348 36.8895H192.055C192.401 36.8895 192.685 37.1435 192.685 37.4896V59.0859C192.685 59.7474 192.121 60.2818 191.461 60.2818L191.465 60.2862Z" fill="white"/>
<path d="M203.058 40.1968H198.975C198.63 40.1968 198.346 39.9121 198.346 39.566V36.6398C198.346 36.2937 198.63 36.009 198.975 36.009H203.058C203.403 36.009 203.688 36.2937 203.688 36.6398V39.566C203.688 39.9121 203.403 40.1968 203.058 40.1968ZM202.931 60.2818H199.098C198.752 60.2818 198.468 59.9971 198.468 59.651V42.869C198.468 42.5229 198.752 42.2382 199.098 42.2382H202.931C203.277 42.2382 203.561 42.5229 203.561 42.869V59.651C203.561 59.9971 203.277 60.2818 202.931 60.2818Z" fill="white"/>
<path d="M223.822 60.2862H220.018C219.673 60.2862 219.389 59.9708 219.389 59.6248V49.142C219.389 46.9386 218.982 46.2158 217.063 46.2158C216.154 46.2158 215.179 46.6582 214.108 47.2233V59.6291C214.108 59.9752 213.824 60.2906 213.479 60.2906H209.676C209.33 60.2906 209.016 59.9752 209.016 59.6291V42.8821C209.016 42.5361 209.3 42.2513 209.645 42.2513H213.164C213.509 42.2513 213.794 42.5361 213.794 42.8821V43.6356C215.52 42.409 216.902 41.9973 218.912 41.9973C223.467 41.9973 224.473 45.1776 224.473 49.142V59.6248C224.473 59.9708 224.158 60.2862 223.813 60.2862H223.822Z" fill="white"/>
<path d="M230.069 66.6775C229.251 66.6775 228.464 66.6162 227.555 66.4585C227.149 66.3972 226.926 66.1738 226.926 65.8277V63.3395C226.926 62.9934 227.175 62.7744 227.586 62.7744H228.967C229.846 62.7744 229.942 62.367 229.942 61.2938V42.9084C229.942 42.5624 230.191 42.2469 230.541 42.2469H234.436C234.781 42.2469 235.035 42.5624 235.035 42.9084V61.2938C235.035 65.4816 233.12 66.6775 230.069 66.6775ZM234.497 40.2012H230.445C230.099 40.2012 229.815 39.9165 229.815 39.5704V36.6442C229.815 36.2981 230.099 36.0134 230.445 36.0134H234.497C234.842 36.0134 235.157 36.2981 235.157 36.6442V39.5704C235.157 39.9165 234.842 40.2012 234.497 40.2012Z" fill="white"/>
<path d="M253.757 60.2862H250.238C249.893 60.2862 249.609 60.0015 249.609 59.6554V59.1516C248.385 60.0321 247.126 60.5666 245.242 60.5666C242.509 60.5666 239.869 59.2436 239.869 55.1521V54.8674C239.869 51.1833 242.225 49.545 247.598 49.545H249.294V48.4104C249.294 46.6144 248.415 46.2376 246.938 46.2376C244.927 46.2376 242.697 46.3647 241.723 46.4567H241.565C241.251 46.4567 241.001 46.299 241.001 45.8916V43.3421C241.001 42.996 241.22 42.7419 241.6 42.6499C242.763 42.3652 244.962 41.9885 247.034 41.9885C251.558 41.9885 254.387 43.8152 254.387 48.4104V59.651C254.387 59.9971 254.102 60.2818 253.757 60.2818V60.2862ZM249.39 52.572H247.598C245.399 52.572 244.835 53.3254 244.835 54.8718V55.1565C244.835 56.4795 245.495 56.7292 246.815 56.7292C247.76 56.7292 248.638 56.4138 249.39 56.037V52.5764V52.572Z" fill="white"/>
</svg>
