<svg width="289" height="93" viewBox="0 0 289 93" fill="none" xmlns="http://www.w3.org/2000/svg">
<path d="M213.568 45.7365C213.633 45.3144 214.003 45.0284 214.396 45.0976C214.789 45.1668 215.055 45.5651 214.99 45.9871C212.704 60.9753 204.759 68.9723 195.751 71.2849C187.011 73.5286 177.367 70.3898 171.17 63.3076C170.343 63.9171 169.213 64.5012 168.015 64.6583C167.256 64.7576 166.449 64.6885 165.676 64.3212C164.898 63.9514 164.203 63.3021 163.647 62.3258C163.121 61.4034 162.934 60.4879 163.02 59.6173C163.106 58.7576 163.452 58.0035 163.897 57.3756C164.579 56.4125 165.541 55.6785 166.377 55.2182C165.885 53.8846 165.489 52.4832 165.202 51.0181C165.12 50.5997 165.37 50.1891 165.759 50.101C166.148 50.0128 166.531 50.2807 166.612 50.6992C166.931 52.323 167.389 53.8614 167.971 55.3087C168.936 57.7135 170.24 59.8701 171.797 61.7509C177.619 68.7797 186.981 71.9439 195.416 69.7785C203.796 67.6272 211.364 60.1815 213.568 45.7365ZM209.033 44.7175C209.062 44.291 209.407 43.9708 209.804 44.0021C210.201 44.0335 210.499 44.4046 210.47 44.8312C209.837 54.0764 206.193 59.8207 201.837 63.207C197.51 66.5702 192.535 67.5672 189.247 67.452C188.849 67.438 188.537 67.0802 188.55 66.6527C188.563 66.2253 188.896 65.8901 189.294 65.9041C192.318 66.0101 196.965 65.0822 200.992 61.9518C204.99 58.8445 208.43 53.5262 209.033 44.7175ZM166.95 56.6436C166.289 57.0208 165.549 57.6005 165.043 58.314C164.714 58.7794 164.504 59.2726 164.453 59.7823C164.403 60.2811 164.499 60.8572 164.875 61.5165C165.296 62.2549 165.777 62.676 166.258 62.9049C166.745 63.1363 167.282 63.1941 167.84 63.121C168.694 63.009 169.546 62.5963 170.206 62.1377C168.927 60.4885 167.826 58.6521 166.95 56.6436Z" fill="white"/>
<path d="M175.668 24.3289C188.446 15.328 207.266 20.8635 213.789 36.2998C213.945 36.6687 213.769 37.0932 213.397 37.2477C213.025 37.4022 212.596 37.2283 212.441 36.8593C206.173 22.0288 188.025 16.9598 176.066 25.8334C173.806 27.5099 171.757 29.6892 170.043 32.4071C170.043 32.4078 170.042 32.4087 170.042 32.4095L170.042 32.4093C170.041 32.4098 170.041 32.4104 170.041 32.4109C168.312 35.1528 166.921 38.4474 166.001 42.3323L165.707 43.5769L164.781 42.6865C162.002 40.014 158.456 37.9461 156.797 37.3661C156.363 37.2144 155.663 37.082 154.934 37.2599C154.236 37.4301 153.434 37.9017 152.774 39.0992C151.375 41.6418 151.402 44.2169 151.505 46.2692C151.56 47.3499 151.999 49.1052 152.779 50.5087C153.589 51.9663 154.549 52.6964 155.559 52.5238C156.998 52.2779 158.892 51.3007 160.739 50.1106C162.56 48.9368 164.242 47.6187 165.236 46.7867L165.656 46.4353L166.113 46.7374C170.387 49.5604 173.441 50.2034 175.771 50.6651C177.315 50.9711 179.307 50.9785 180.676 50.8752C180.242 49.7902 180.042 48.5281 179.965 47.3295C179.863 45.723 179.977 44.1277 180.124 43.0048C180.182 42.5576 180.348 41.956 180.58 41.3657C180.812 40.7765 181.133 40.1383 181.531 39.645C181.953 39.122 182.422 38.5802 183.108 38.2078C183.808 37.8279 184.658 37.6625 185.793 37.7188C186.36 37.7469 186.994 37.9775 187.596 38.2666C188.215 38.564 188.873 38.9601 189.508 39.387C190.777 40.2393 192.012 41.2541 192.741 41.9586C193.03 42.2379 193.036 42.6964 192.754 42.9828C192.472 43.2692 192.009 43.275 191.72 42.9957C191.057 42.3553 189.89 41.3939 188.688 40.5857C188.087 40.1823 187.492 39.8269 186.958 39.57C186.407 39.305 185.988 39.1787 185.72 39.1655C184.767 39.1182 184.206 39.2633 183.81 39.4783C183.4 39.7008 183.086 40.0384 182.673 40.5499C182.402 40.8844 182.146 41.3737 181.942 41.8913C181.739 42.4079 181.613 42.8927 181.573 43.1913C181.435 44.2478 181.329 45.747 181.424 47.238C181.521 48.7499 181.819 50.1535 182.413 51.0943C182.667 51.4954 182.963 51.7943 183.304 51.9905C184.355 52.5953 185.556 52.5498 186.709 52.1766C187.864 51.803 188.879 51.1268 189.445 50.6287C189.776 50.3336 191.645 48.5305 196.408 43.7285C198.964 41.1521 202.295 40.2701 205.352 40.1858C208.018 40.1122 210.532 40.6422 212.269 41.2358C212.47 40.7733 212.748 40.2441 213.1 39.7364C213.648 38.9461 214.438 38.1212 215.484 37.7584C215.828 37.639 216.196 37.5867 216.552 37.6824C216.929 37.7837 217.195 38.0246 217.364 38.3048C217.661 38.801 217.676 39.4587 217.643 39.9639C217.585 40.8337 217.336 41.7727 217.212 42.1926C217.243 42.2664 217.286 42.3611 217.344 42.4879C217.485 42.7995 217.684 43.2434 217.825 43.7254C217.963 44.2017 218.063 44.7808 217.953 45.3574C217.836 45.968 217.49 46.5283 216.837 46.9234C216.188 47.3166 215.516 47.2284 214.965 46.9219C214.454 46.6376 214.015 46.1565 213.654 45.6597C213.005 44.7643 212.465 43.6099 212.125 42.7233C210.542 42.137 208.043 41.5606 205.392 41.6337C202.574 41.7115 199.657 42.5193 197.451 44.7437C192.696 49.5377 190.791 51.3778 190.422 51.7066L190.42 51.708L190.419 51.7096C189.731 52.315 188.544 53.1069 187.163 53.5536C185.779 54.0013 184.108 54.1283 182.57 53.2432C182.126 52.9877 181.757 52.6478 181.451 52.2569C179.988 52.428 177.447 52.4745 175.484 52.0855C173.147 51.6223 170.022 50.9608 165.76 48.2397C164.716 49.0907 163.185 50.2619 161.536 51.3249C159.674 52.5245 157.565 53.6511 155.807 53.9513C153.789 54.2961 152.355 52.7499 151.498 51.2071C150.611 49.61 150.111 47.6406 150.045 46.3416C149.94 44.2553 149.884 41.326 151.491 38.4057C152.336 36.8717 153.465 36.1262 154.584 35.8534C155.672 35.5881 156.674 35.7867 157.284 36.0001C158.981 36.5937 162.151 38.4218 164.88 40.8066C165.761 37.5335 166.98 34.6653 168.466 32.1878C168.346 32.0941 168.209 31.985 168.06 31.8623C167.513 31.4092 166.793 30.7562 166.174 29.9599C165.559 29.1684 165.008 28.1882 164.867 27.0837C164.722 25.9485 165.022 24.7557 165.978 23.601C167.562 21.688 169.702 21.564 171.572 22.0969C173.16 22.5496 174.642 23.4894 175.668 24.3289ZM168.424 45.336C169.177 31.1541 180.294 23.8414 189.958 24.1642C190.361 24.1777 190.677 24.5126 190.664 24.9123C190.65 25.3121 190.312 25.6254 189.909 25.6119C180.985 25.3139 170.592 32.0724 169.883 45.4122C169.862 45.8116 169.518 46.1184 169.115 46.0975C168.712 46.0764 168.402 45.7355 168.424 45.336ZM216.126 39.0846C216.093 39.0892 216.041 39.1001 215.967 39.1257C215.342 39.3422 214.774 39.8798 214.305 40.557C213.914 41.1202 213.633 41.7203 213.472 42.1575C213.783 42.9796 214.279 44.0385 214.841 44.8144C215.155 45.2463 215.444 45.527 215.68 45.6585C215.877 45.7679 215.973 45.7495 216.075 45.6874C216.363 45.5134 216.474 45.3107 216.516 45.087C216.566 44.8296 216.529 44.5034 216.42 44.1262C216.312 43.7546 216.152 43.3963 216.01 43.0806C215.943 42.9336 215.871 42.7748 215.821 42.6449C215.796 42.58 215.766 42.4969 215.746 42.4095C215.734 42.3531 215.689 42.1567 215.763 41.9378L215.792 41.8465C215.883 41.544 216.132 40.6481 216.184 39.8689C216.212 39.45 216.171 39.1981 216.126 39.0846ZM171.168 23.4889C169.642 23.0539 168.197 23.2048 167.108 24.5199C166.394 25.3827 166.226 26.1815 166.317 26.9022C166.413 27.6536 166.802 28.3935 167.333 29.0764C167.859 29.7545 168.489 30.3303 168.997 30.7502C169.086 30.8237 169.171 30.8916 169.25 30.9545C170.775 28.684 172.537 26.7808 174.467 25.2316C173.575 24.5448 172.386 23.8362 171.168 23.4889Z" fill="white"/>
<path d="M206.317 36.1344C206.317 37.0562 205.569 37.8035 204.648 37.8035C203.726 37.8035 202.979 37.0562 202.979 36.1344C202.979 35.2126 203.726 34.4653 204.648 34.4653C205.569 34.4653 206.317 35.2126 206.317 36.1344Z" fill="white"/>
<path d="M138.987 67.956C138.675 67.956 138.44 67.8803 138.28 67.7289C138.128 67.569 138.053 67.3335 138.053 67.0222V52.0677C138.053 51.748 138.128 51.5124 138.28 51.3609C138.44 51.2095 138.675 51.1338 138.987 51.1338C139.298 51.1338 139.529 51.2095 139.681 51.3609C139.832 51.5124 139.908 51.748 139.908 52.0677V67.0222C139.908 67.3335 139.832 67.569 139.681 67.7289C139.529 67.8803 139.298 67.956 138.987 67.956Z" fill="white"/>
<path d="M119.057 67.9565C118.805 67.9565 118.586 67.8639 118.401 67.6788C118.216 67.4937 118.123 67.275 118.123 67.0226V52.0555C118.123 51.8031 118.216 51.5843 118.401 51.3992C118.586 51.2141 118.805 51.1216 119.057 51.1216C119.309 51.1216 119.524 51.2141 119.701 51.3992C119.886 51.5843 119.978 51.8031 119.978 52.0555V58.5042H130.377V52.0555C130.377 51.8031 130.465 51.5843 130.642 51.3992C130.819 51.2141 131.037 51.1216 131.298 51.1216C131.551 51.1216 131.769 51.2141 131.954 51.3992C132.139 51.5843 132.232 51.8031 132.232 52.0555V67.0226C132.232 67.275 132.139 67.4937 131.954 67.6788C131.769 67.8639 131.551 67.9565 131.298 67.9565C131.037 67.9565 130.819 67.8639 130.642 67.6788C130.465 67.4937 130.377 67.275 130.377 67.0226V60.3593H119.978V67.0226C119.978 67.275 119.886 67.4937 119.701 67.6788C119.524 67.8639 119.309 67.9565 119.057 67.9565Z" fill="white"/>
<path d="M104.375 67.9438C102.92 67.9438 101.801 67.641 101.018 67.0352C100.244 66.421 99.7816 65.4703 99.6302 64.1831C99.6049 63.8718 99.6722 63.6363 99.8321 63.4764C100 63.3082 100.236 63.224 100.539 63.224C100.842 63.224 101.065 63.2997 101.208 63.4512C101.359 63.6026 101.456 63.8298 101.498 64.1326C101.599 64.873 101.864 65.3862 102.293 65.6723C102.73 65.9499 103.425 66.0887 104.375 66.0887H108.01C109.137 66.0887 109.907 65.8826 110.319 65.4703C110.74 65.0497 110.95 64.2883 110.95 63.1862C110.95 62.0672 110.736 61.2974 110.307 60.8767C109.886 60.4477 109.12 60.2331 108.01 60.2331H104.779C103.223 60.2331 102.07 59.8587 101.321 59.1099C100.581 58.3612 100.211 57.2128 100.211 55.6647C100.211 54.1167 100.577 52.9725 101.309 52.2321C102.049 51.4918 103.197 51.1216 104.754 51.1216H107.934C109.297 51.1216 110.344 51.4118 111.076 51.9923C111.817 52.5645 112.263 53.452 112.414 54.6551C112.448 54.9664 112.38 55.2062 112.212 55.3745C112.052 55.5343 111.817 55.6142 111.505 55.6142C111.211 55.6142 110.988 55.5385 110.837 55.3871C110.685 55.2272 110.593 55.0001 110.559 54.7056C110.458 54.0578 110.206 53.6077 109.802 53.3553C109.406 53.1029 108.784 52.9767 107.934 52.9767H104.754C103.711 52.9767 103 53.1702 102.621 53.5572C102.251 53.9358 102.066 54.6383 102.066 55.6647C102.066 56.6911 102.255 57.4021 102.634 57.7975C103.021 58.1845 103.736 58.378 104.779 58.378H108.01C109.642 58.378 110.849 58.7692 111.632 59.5516C112.414 60.3341 112.805 61.5456 112.805 63.1862C112.805 64.8183 112.414 66.0214 111.632 66.7954C110.849 67.561 109.642 67.9438 108.01 67.9438H104.375Z" fill="white"/>
<path d="M85.8986 67.9565C84.0056 67.9565 82.609 67.5106 81.7088 66.6188C80.817 65.7185 80.3711 64.3219 80.3711 62.429V52.0555C80.3711 51.7526 80.451 51.5212 80.6109 51.3614C80.7707 51.2015 81.0021 51.1216 81.305 51.1216C81.6078 51.1216 81.835 51.2015 81.9864 51.3614C82.1463 51.5212 82.2262 51.7526 82.2262 52.0555V62.429C82.2262 63.3544 82.3398 64.0864 82.5669 64.6248C82.7941 65.1549 83.1727 65.5334 83.7027 65.7606C84.2412 65.9878 84.9731 66.1013 85.8986 66.1013H88.9274C89.8444 66.1013 90.5679 65.9878 91.098 65.7606C91.6364 65.5334 92.0192 65.1549 92.2464 64.6248C92.4735 64.0864 92.5871 63.3544 92.5871 62.429V52.0555C92.5871 51.7526 92.667 51.5212 92.8269 51.3614C92.9867 51.2015 93.2181 51.1216 93.521 51.1216C93.8239 51.1216 94.051 51.2015 94.2024 51.3614C94.3623 51.5212 94.4422 51.7526 94.4422 52.0555V62.429C94.4422 64.3219 93.9963 65.7185 93.1045 66.6188C92.2127 67.5106 90.8203 67.9565 88.9274 67.9565H85.8986Z" fill="white"/>
<path d="M66.7502 67.9438C65.2947 67.9438 64.1758 67.641 63.3933 67.0352C62.6193 66.421 62.1566 65.4703 62.0052 64.1831C61.9799 63.8718 62.0472 63.6363 62.2071 63.4764C62.3753 63.3082 62.6109 63.224 62.9138 63.224C63.2167 63.224 63.4396 63.2997 63.5826 63.4512C63.7341 63.6026 63.8308 63.8298 63.8729 64.1326C63.9739 64.873 64.2389 65.3862 64.668 65.6723C65.1054 65.9499 65.7995 66.0887 66.7502 66.0887H70.3847C71.5121 66.0887 72.2819 65.8826 72.6942 65.4703C73.1148 65.0497 73.3252 64.2883 73.3252 63.1862C73.3252 62.0672 73.1106 61.2974 72.6816 60.8767C72.2609 60.4477 71.4953 60.2331 70.3847 60.2331H67.1541C65.5976 60.2331 64.445 59.8587 63.6962 59.1099C62.9559 58.3612 62.5857 57.2128 62.5857 55.6647C62.5857 54.1167 62.9517 52.9725 63.6836 52.2321C64.424 51.4918 65.5724 51.1216 67.1288 51.1216H70.309C71.672 51.1216 72.7194 51.4118 73.4514 51.9923C74.1917 52.5645 74.6376 53.452 74.7891 54.6551C74.8227 54.9664 74.7554 55.2062 74.5872 55.3745C74.4273 55.5343 74.1917 55.6142 73.8804 55.6142C73.586 55.6142 73.363 55.5385 73.2116 55.3871C73.0601 55.2272 72.9676 55.0001 72.934 54.7056C72.833 54.0578 72.5806 53.6077 72.1768 53.3553C71.7813 53.1029 71.1588 52.9767 70.309 52.9767H67.1288C66.0856 52.9767 65.3747 53.1702 64.9961 53.5572C64.6259 53.9358 64.4408 54.6383 64.4408 55.6647C64.4408 56.6911 64.6301 57.4021 65.0087 57.7975C65.3957 58.1845 66.1108 58.378 67.1541 58.378H70.3847C72.0169 58.378 73.2242 58.7692 74.0066 59.5516C74.7891 60.3341 75.1803 61.5456 75.1803 63.1862C75.1803 64.8183 74.7891 66.0214 74.0066 66.7954C73.2242 67.561 72.0169 67.9438 70.3847 67.9438H66.7502Z" fill="white"/>
<path d="M129.338 42.717C127.066 42.717 125.391 42.1819 124.31 41.1117C123.24 40.0315 122.705 38.3556 122.705 36.084V23.6358C122.705 23.2723 122.801 22.9947 122.993 22.8029C123.185 22.611 123.462 22.5151 123.826 22.5151C124.189 22.5151 124.462 22.611 124.643 22.8029C124.835 22.9947 124.931 23.2723 124.931 23.6358V36.084C124.931 37.1945 125.068 38.0729 125.34 38.719C125.613 39.3551 126.067 39.8094 126.703 40.082C127.349 40.3546 128.228 40.4909 129.338 40.4909H132.973C134.073 40.4909 134.941 40.3546 135.577 40.082C136.223 39.8094 136.683 39.3551 136.955 38.719C137.228 38.0729 137.364 37.1945 137.364 36.084V23.6358C137.364 23.2723 137.46 22.9947 137.652 22.8029C137.844 22.611 138.121 22.5151 138.485 22.5151C138.848 22.5151 139.121 22.611 139.303 22.8029C139.495 22.9947 139.59 23.2723 139.59 23.6358V36.084C139.59 38.3556 139.055 40.0315 137.985 41.1117C136.915 42.1819 135.244 42.717 132.973 42.717H129.338Z" fill="#FFF9F6"/>
<path d="M108.014 42.7166C105.742 42.7166 104.066 42.1816 102.986 41.1114C101.916 40.0311 101.381 38.3552 101.381 36.0837V29.1478C101.381 26.856 101.916 25.1751 102.986 24.1049C104.056 23.0347 105.722 22.5047 107.984 22.5148H111.648C113.526 22.5148 114.95 22.9085 115.919 23.696C116.888 24.4734 117.443 25.7051 117.585 27.3911C117.635 27.7646 117.565 28.0524 117.373 28.2543C117.181 28.4461 116.898 28.542 116.525 28.542C115.848 28.542 115.46 28.1685 115.359 27.4214C115.268 26.3916 114.94 25.6899 114.374 25.3164C113.809 24.9328 112.9 24.7409 111.648 24.7409H107.984C106.883 24.7409 106.015 24.8772 105.379 25.1498C104.743 25.4123 104.288 25.8666 104.016 26.5128C103.743 27.1488 103.607 28.0271 103.607 29.1478V36.0837C103.607 37.1942 103.743 38.0725 104.016 38.7187C104.288 39.3547 104.743 39.809 105.379 40.0816C106.025 40.3542 106.903 40.4905 108.014 40.4905H111.648C112.618 40.4905 113.375 40.3795 113.92 40.1573C114.475 39.9352 114.864 39.5516 115.086 39.0064C115.318 38.4511 115.434 37.6788 115.434 36.6894V35.1144L112.754 35.0842C112.017 35.0842 111.648 34.7106 111.648 33.9635C111.648 33.2265 112.017 32.858 112.754 32.858L116.555 32.8883C117.292 32.8883 117.66 33.2568 117.66 33.9938V36.6894C117.66 38.7894 117.176 40.3189 116.207 41.278C115.248 42.2371 113.728 42.7166 111.648 42.7166H108.014Z" fill="#FFF9F6"/>
<path d="M85.8283 42.717C83.5567 42.717 81.8808 42.1819 80.8006 41.1117C79.7304 40.0315 79.1953 38.3556 79.1953 36.084V23.6358C79.1953 23.2723 79.2912 22.9947 79.483 22.8029C79.6749 22.611 79.9525 22.5151 80.316 22.5151C80.6794 22.5151 80.952 22.611 81.1337 22.8029C81.3255 22.9947 81.4215 23.2723 81.4215 23.6358V36.084C81.4215 37.1945 81.5577 38.0729 81.8303 38.719C82.1029 39.3551 82.5572 39.8094 83.1933 40.082C83.8394 40.3546 84.7178 40.4909 85.8283 40.4909H89.4628C90.5633 40.4909 91.4315 40.3546 92.0676 40.082C92.7137 39.8094 93.1731 39.3551 93.4456 38.719C93.7182 38.0729 93.8545 37.1945 93.8545 36.084V23.6358C93.8545 23.2723 93.9504 22.9947 94.1423 22.8029C94.3341 22.611 94.6117 22.5151 94.9752 22.5151C95.3386 22.5151 95.6112 22.611 95.7929 22.8029C95.9848 22.9947 96.0807 23.2723 96.0807 23.6358V36.084C96.0807 38.3556 95.5456 40.0315 94.4754 41.1117C93.4053 42.1819 91.7344 42.717 89.4628 42.717H85.8283Z" fill="#FFF9F6"/>
<path d="M64.1402 42.717C63.3931 42.717 63.0195 42.3434 63.0195 41.5964V23.6358C63.0195 22.8887 63.3931 22.5151 64.1402 22.5151H75.2103C75.5536 22.5151 75.8211 22.6161 76.0129 22.818C76.2148 23.0098 76.3158 23.2824 76.3158 23.6358C76.3158 24.3728 75.9473 24.7413 75.2103 24.7413H65.2457V31.4046H71.6061C72.3532 31.4046 72.7267 31.7731 72.7267 32.5101C72.7267 33.2572 72.3532 33.6307 71.6061 33.6307H65.2457V41.5964C65.2457 42.3434 64.8772 42.717 64.1402 42.717Z" fill="#FFF9F6"/>
</svg>
