<svg width="280" height="100" viewBox="0 0 280 100" fill="none" xmlns="http://www.w3.org/2000/svg">
<path d="M198.272 87.2431H191.942V55.4034H198.272V87.2431Z" fill="#374151"/>
<path d="M185.852 87.2431H179.522V73.4571H166.624V87.2431H160.294V55.4034H166.624V68.9976H179.522V55.4034H185.852V87.2431Z" fill="#374151"/>
<path d="M154.059 61.3973C153.899 61.717 153.707 61.9487 153.484 62.0926C153.276 62.2205 153.012 62.2844 152.692 62.2844C152.389 62.2844 152.061 62.1725 151.709 61.9487C151.358 61.725 150.942 61.4852 150.463 61.2295C149.999 60.9577 149.456 60.71 148.832 60.4862C148.209 60.2625 147.49 60.1506 146.675 60.1506C145.236 60.1506 144.149 60.5022 143.414 61.2055C142.695 61.9088 142.335 62.8278 142.335 63.9627C142.335 64.682 142.527 65.2813 142.91 65.7609C143.31 66.2244 143.829 66.632 144.469 66.9836C145.124 67.3193 145.859 67.623 146.675 67.8947C147.506 68.1664 148.353 68.4621 149.216 68.7818C150.079 69.0855 150.918 69.4531 151.733 69.8847C152.565 70.3002 153.3 70.8277 153.939 71.4671C154.594 72.1064 155.114 72.8896 155.498 73.8167C155.897 74.7437 156.097 75.8706 156.097 77.1972C156.097 78.6358 155.857 79.9864 155.378 81.2491C154.914 82.5118 154.227 83.6147 153.316 84.5577C152.405 85.4848 151.286 86.2201 149.959 86.7635C148.649 87.3069 147.146 87.5787 145.452 87.5787C144.493 87.5787 143.534 87.4748 142.575 87.267C141.632 87.0752 140.721 86.7955 139.841 86.4278C138.962 86.0602 138.131 85.6207 137.348 85.1092C136.565 84.5977 135.878 84.0223 135.286 83.3829L137.156 80.386C137.3 80.1462 137.492 79.9544 137.732 79.8106C137.987 79.6667 138.259 79.5948 138.547 79.5948C138.93 79.5948 139.322 79.7466 139.722 80.0503C140.137 80.338 140.617 80.6657 141.16 81.0333C141.704 81.385 142.335 81.7126 143.054 82.0163C143.774 82.304 144.629 82.4479 145.62 82.4479C147.058 82.4479 148.177 82.0803 148.976 81.345C149.775 80.6098 150.175 79.5229 150.175 78.0843C150.175 77.2692 149.975 76.6058 149.576 76.0944C149.192 75.5829 148.681 75.1593 148.041 74.8236C147.402 74.472 146.667 74.1763 145.835 73.9365C145.02 73.6808 144.181 73.4091 143.318 73.1214C142.471 72.8337 141.632 72.49 140.801 72.0904C139.985 71.6748 139.258 71.1314 138.619 70.4601C137.979 69.7888 137.46 68.9576 137.06 67.9666C136.677 66.9756 136.485 65.7449 136.485 64.2744C136.485 63.1076 136.709 61.9727 137.156 60.8698C137.604 59.751 138.259 58.76 139.122 57.8969C139.985 57.0337 141.04 56.3464 142.287 55.835C143.55 55.3075 144.988 55.0438 146.603 55.0438C148.425 55.0438 150.111 55.3395 151.661 55.9309C153.228 56.5223 154.563 57.3534 155.665 58.4243L154.059 61.3973Z" fill="#374151"/>
<path d="M118.338 82.1602C119.457 82.1602 120.448 81.9764 121.311 81.6088C122.19 81.2412 122.925 80.7217 123.517 80.0504C124.124 79.3791 124.587 78.5639 124.907 77.6049C125.227 76.6458 125.387 75.5749 125.387 74.3921V55.4034H131.668V74.3921C131.668 76.3102 131.357 78.0764 130.733 79.6907C130.126 81.3051 129.247 82.7037 128.096 83.8865C126.945 85.0533 125.546 85.9644 123.9 86.6197C122.254 87.275 120.4 87.6027 118.338 87.6027C116.276 87.6027 114.414 87.275 112.751 86.6197C111.105 85.9644 109.707 85.0533 108.556 83.8865C107.405 82.7037 106.518 81.3051 105.894 79.6907C105.287 78.0764 104.983 76.3102 104.983 74.3921V55.4034H111.289V74.3921C111.289 75.5749 111.449 76.6458 111.768 77.6049C112.088 78.5639 112.544 79.3791 113.135 80.0504C113.742 80.7217 114.478 81.2412 115.341 81.6088C116.22 81.9764 117.219 82.1602 118.338 82.1602Z" fill="#374151"/>
<path d="M98.7729 61.3973C98.6131 61.717 98.4213 61.9487 98.1975 62.0926C97.9897 62.2205 97.726 62.2844 97.4063 62.2844C97.1026 62.2844 96.7749 62.1725 96.4233 61.9487C96.0717 61.725 95.6561 61.4852 95.1766 61.2295C94.713 60.9577 94.1696 60.71 93.5462 60.4862C92.9229 60.2625 92.2036 60.1506 91.3884 60.1506C89.9499 60.1506 88.863 60.5022 88.1277 61.2055C87.4085 61.9088 87.0488 62.8278 87.0488 63.9627C87.0488 64.682 87.2406 65.2813 87.6242 65.7609C88.0238 66.2244 88.5433 66.632 89.1827 66.9836C89.838 67.3193 90.5732 67.623 91.3884 67.8947C92.2196 68.1664 93.0667 68.4621 93.9298 68.7818C94.793 69.0855 95.6321 69.4531 96.4473 69.8847C97.2784 70.3002 98.0137 70.8277 98.653 71.4671C99.3084 72.1064 99.8278 72.8896 100.211 73.8167C100.611 74.7437 100.811 75.8706 100.811 77.1972C100.811 78.6358 100.571 79.9864 100.092 81.2491C99.628 82.5118 98.9407 83.6147 98.0297 84.5577C97.1186 85.4848 95.9997 86.2201 94.6731 86.7635C93.3624 87.3069 91.8599 87.5787 90.1657 87.5787C89.2066 87.5787 88.2476 87.4748 87.2886 87.267C86.3455 87.0752 85.4345 86.7955 84.5554 86.4278C83.6763 86.0602 82.8451 85.6207 82.0619 85.1092C81.2787 84.5977 80.5914 84.0223 80 83.3829L81.8701 80.386C82.014 80.1462 82.2058 79.9544 82.4455 79.8106C82.7013 79.6667 82.973 79.5948 83.2607 79.5948C83.6443 79.5948 84.0359 79.7466 84.4355 80.0503C84.8511 80.338 85.3306 80.6657 85.874 81.0333C86.4175 81.385 87.0488 81.7126 87.7681 82.0163C88.4874 82.304 89.3425 82.4479 90.3335 82.4479C91.772 82.4479 92.8909 82.0803 93.6901 81.345C94.4893 80.6098 94.8889 79.5229 94.8889 78.0843C94.8889 77.2692 94.6891 76.6058 94.2895 76.0944C93.9059 75.5829 93.3944 75.1593 92.755 74.8236C92.1157 74.472 91.3804 74.1763 90.5493 73.9365C89.7341 73.6808 88.895 73.4091 88.0318 73.1214C87.1847 72.8337 86.3455 72.49 85.5144 72.0904C84.6992 71.6748 83.972 71.1314 83.3326 70.4601C82.6933 69.7888 82.1738 68.9576 81.7742 67.9666C81.3906 66.9756 81.1988 65.7449 81.1988 64.2744C81.1988 63.1076 81.4226 61.9727 81.8701 60.8698C82.3176 59.751 82.973 58.76 83.8361 57.8969C84.6992 57.0337 85.7541 56.3464 87.0009 55.835C88.2636 55.3075 89.7021 55.0438 91.3165 55.0438C93.1386 55.0438 94.8249 55.3395 96.3753 55.9309C97.9418 56.5223 99.2764 57.3534 100.379 58.4243L98.7729 61.3973Z" fill="#374151"/>
<path d="M186.423 40.5437C187.601 40.5437 188.644 40.3502 189.553 39.9632C190.478 39.5762 191.252 39.0294 191.875 38.3228C192.514 37.6161 193.002 36.758 193.339 35.7485C193.675 34.739 193.843 33.6118 193.843 32.3667V12.3786H200.456V32.3667C200.456 34.3857 200.127 36.2449 199.471 37.9442C198.832 39.6435 197.907 41.1157 196.695 42.3608C195.484 43.589 194.012 44.548 192.279 45.2378C190.546 45.9277 188.594 46.2726 186.423 46.2726C184.253 46.2726 182.293 45.9277 180.543 45.2378C178.81 44.548 177.338 43.589 176.127 42.3608C174.915 41.1157 173.981 39.6435 173.325 37.9442C172.686 36.2449 172.366 34.3857 172.366 32.3667V12.3786H179.004V32.3667C179.004 33.6118 179.172 34.739 179.508 35.7485C179.845 36.758 180.324 37.6161 180.947 38.3228C181.586 39.0294 182.36 39.5762 183.269 39.9632C184.194 40.3502 185.246 40.5437 186.423 40.5437Z" fill="#374151"/>
<path d="M167.269 42.6635C165.587 43.9254 163.795 44.8424 161.894 45.4144C159.993 45.9697 157.974 46.2473 155.837 46.2473C153.128 46.2473 150.671 45.8266 148.467 44.9854C146.28 44.1273 144.404 42.9412 142.839 41.4269C141.275 39.8958 140.063 38.0872 139.205 36.0009C138.364 33.8977 137.943 31.6011 137.943 29.111C137.943 26.6041 138.347 24.3075 139.155 22.2212C139.962 20.1181 141.115 18.3094 142.612 16.7951C144.127 15.2809 145.944 14.1031 148.064 13.2619C150.2 12.4206 152.581 12 155.206 12C156.569 12 157.839 12.1094 159.017 12.3281C160.194 12.5468 161.288 12.8497 162.298 13.2366C163.307 13.6236 164.224 14.0863 165.048 14.6247C165.89 15.1631 166.647 15.7604 167.32 16.4166L165.427 19.3946C165.141 19.8657 164.754 20.1601 164.266 20.2779C163.795 20.3788 163.282 20.2611 162.727 19.9246C162.205 19.6049 161.683 19.3105 161.162 19.0413C160.64 18.7552 160.077 18.5113 159.471 18.3094C158.882 18.0906 158.226 17.9224 157.502 17.8046C156.779 17.6868 155.946 17.628 155.004 17.628C153.422 17.628 152.001 17.9056 150.739 18.4608C149.477 18.9992 148.4 19.7647 147.508 20.7574C146.617 21.7501 145.927 22.9615 145.439 24.3916C144.968 25.8049 144.732 27.378 144.732 29.111C144.732 30.9954 144.993 32.6779 145.515 34.1585C146.036 35.6391 146.768 36.8926 147.71 37.9189C148.669 38.9284 149.822 39.7024 151.168 40.2408C152.514 40.7623 154.011 41.0231 155.66 41.0231C156.771 41.0231 157.763 40.9137 158.638 40.695C159.53 40.4595 160.405 40.1398 161.263 39.736V33.8809H157.401C156.998 33.8809 156.67 33.7631 156.417 33.5276C156.182 33.292 156.064 33.006 156.064 32.6695V28.9344H167.269V42.6635Z" fill="#374151"/>
<path d="M119.697 40.5437C120.875 40.5437 121.918 40.3502 122.826 39.9632C123.752 39.5762 124.526 39.0294 125.148 38.3228C125.788 37.6161 126.276 36.758 126.612 35.7485C126.949 34.739 127.117 33.6118 127.117 32.3667V12.3786H133.729V32.3667C133.729 34.3857 133.401 36.2449 132.745 37.9442C132.105 39.6435 131.18 41.1157 129.969 42.3608C128.757 43.589 127.285 44.548 125.552 45.2378C123.819 45.9277 121.867 46.2726 119.697 46.2726C117.527 46.2726 115.566 45.9277 113.817 45.2378C112.084 44.548 110.611 43.589 109.4 42.3608C108.189 41.1157 107.255 39.6435 106.599 37.9442C105.959 36.2449 105.64 34.3857 105.64 32.3667V12.3786H112.277V32.3667C112.277 33.6118 112.445 34.739 112.782 35.7485C113.118 36.758 113.598 37.6161 114.22 38.3228C114.86 39.0294 115.634 39.5762 116.542 39.9632C117.468 40.3502 118.519 40.5437 119.697 40.5437Z" fill="#374151"/>
<path d="M101.549 12.3786V17.6533H88.5016V27.1426H99.4294V32.4172H88.5016V45.894H81.8389V12.3786H101.549Z" fill="#374151"/>
</svg>
