<svg width="280" height="100" viewBox="0 0 280 100" fill="none" xmlns="http://www.w3.org/2000/svg">
<path d="M104.445 57.671C104.789 58.696 105.3 59.5038 105.977 60.0961C106.654 60.6873 107.398 60.9832 108.21 60.9832C109.268 60.9832 110.363 60.5237 111.495 59.6031C112.363 58.897 113.194 58.0646 113.991 57.1117C114.09 57.3428 114.191 57.5717 114.301 57.7888C115.383 59.918 117.093 60.9832 119.431 60.9832C121.055 60.9832 122.507 60.4177 123.786 59.2877C124.525 58.6312 124.894 57.7503 124.894 56.6466C124.894 56.147 124.802 55.7199 124.618 55.3654C124.434 55.0098 124.193 54.8323 123.898 54.8323C123.626 54.8323 123.357 54.964 123.086 55.227C122.643 55.6468 122.157 55.989 121.628 56.2519C121.099 56.5154 120.625 56.6466 120.207 56.6466C119.443 56.6466 118.842 56.4099 118.398 55.9371C117.955 55.4637 117.635 54.6754 117.438 53.5712C120.169 50.1011 122.36 46.6187 124.008 43.1223C125.656 39.6254 126.481 36.4718 126.481 33.6588C126.481 31.5039 126.131 29.8933 125.429 28.8293C124.728 27.7641 123.775 27.2321 122.569 27.2327C120.526 27.2327 118.754 28.4346 117.254 30.8407C115.752 33.2457 114.615 36.1776 113.839 39.6332C113.064 43.0899 112.676 46.3033 112.676 49.2737C112.676 50.6644 112.761 51.9417 112.928 53.1145C112.005 54.2685 111.257 55.1254 110.683 55.6814C110.019 56.3251 109.453 56.6466 108.986 56.6466C108.69 56.6466 108.45 56.5283 108.266 56.2916C108.082 56.0549 107.99 55.7406 107.99 55.3459C107.99 54.1629 108.273 52.06 108.839 49.0365C109.208 46.9603 109.392 45.6462 109.392 45.0935C109.392 44.1746 108.789 43.7141 107.584 43.7141C107.018 43.7141 106.477 43.7666 105.96 43.8715C105.836 43.2937 105.684 42.8929 105.499 42.6696C105.313 42.4468 104.95 42.3341 104.409 42.3341C102.711 42.3341 101.106 42.9046 99.5929 44.049C98.0801 45.1929 96.8672 46.7047 95.9573 48.5832C95.754 49.0019 95.5778 49.4273 95.42 49.8571C95.4039 49.8594 95.3843 49.8616 95.3682 49.8638C94.1623 50.0475 93.0675 50.139 92.0833 50.139C91.7879 50.139 91.5299 50.1268 91.3082 50.1005C90.6194 50.0475 90.0279 50.0212 89.5367 50.0212C89.2649 50.0212 88.9579 50.2189 88.613 50.613C88.268 51.0071 87.9789 51.4671 87.7457 51.993C87.5113 52.5194 87.4071 52.9538 87.4318 53.2943C87.8747 55.4235 88.2254 57.4477 88.4834 59.3665C88.742 61.2852 88.871 63.2698 88.871 65.3203C88.871 68.0535 88.5018 69.4212 87.7641 69.4212C87.369 69.4212 87.0869 67.9943 86.9147 65.1427C86.7413 62.2911 86.6567 59.5122 86.6567 56.8035C86.6567 54.8597 86.7793 52.5982 87.0258 50.0218C93.94 42.7416 97.3976 36.0113 97.3976 29.8342C97.3976 27.9673 97.0723 26.4824 96.4204 25.3787C95.7673 24.2745 94.8637 23.7224 93.7073 23.7224C91.5656 23.7224 89.6041 25.4245 87.8194 28.8287C86.0347 32.233 84.6318 36.531 83.6113 41.7222C82.8022 45.8354 82.3196 49.9012 82.1515 53.9235C81.5255 54.6765 80.9956 55.2638 80.5654 55.6808C79.9009 56.3245 79.3348 56.6461 78.8677 56.6461C78.5723 56.6461 78.3321 56.5277 78.1479 56.291C77.9636 56.0543 77.872 55.74 77.872 55.3453C77.872 54.1624 78.1542 52.0594 78.7209 49.0359C79.09 46.9598 79.2743 45.6456 79.2743 45.093C79.2743 44.1741 78.6713 43.7135 77.466 43.7135C76.8999 43.7135 76.358 43.766 75.842 43.8709C75.7182 43.2931 75.565 42.8923 75.3807 42.669C75.1952 42.4463 74.8319 42.3335 74.2905 42.3335C72.5934 42.3335 70.9878 42.904 69.4749 44.0485C67.962 45.1923 66.7492 46.7041 65.8393 48.5826C64.9288 50.4623 64.4738 52.4536 64.4738 54.5565C64.4738 54.7006 64.4819 54.8384 64.4865 54.978C64.2994 55.1539 64.1214 55.3102 63.955 55.4419C63.2414 56.008 62.4905 56.2899 61.7038 56.2899C60.8181 56.2899 60.0366 55.922 59.3605 55.1857C58.6832 54.4499 58.0002 53.2921 57.3115 51.715C56.6717 50.2434 56.0313 49.1264 55.3926 48.3643C54.7522 47.6023 53.8423 47.0502 52.6611 46.708C54.5311 46.1827 56.1182 45.3805 57.4226 44.3025C58.7276 43.225 59.7049 41.9835 60.3579 40.5767C61.0099 39.1704 61.3352 37.7318 61.3352 36.2591C61.3352 34.5765 60.9477 33.0653 60.1725 31.725C59.3974 30.3846 58.2093 29.3334 56.61 28.5714C55.0108 27.8094 53.0297 27.4275 50.668 27.4275C47.2725 27.4275 44.2767 28.2761 41.6806 29.9715C39.0845 31.6669 37.0665 34.1177 35.6274 37.3243C34.1876 40.5309 33.4678 44.3427 33.4678 48.7585C33.4678 51.1244 33.8127 53.234 34.5015 55.0869C35.1903 56.9403 36.1693 58.3862 37.4363 59.4251C38.7032 60.464 40.1614 60.9826 41.8107 60.9826C43.3104 60.9826 44.4316 60.5561 45.1693 59.7014C45.9071 58.8478 46.3989 57.6185 46.6454 56.0147C46.6949 55.7261 46.8175 54.925 47.0157 53.6097C47.4827 50.6917 47.766 48.9572 47.8645 48.4051C48.5285 48.4844 49.0883 48.7077 49.5438 49.0756C49.9988 49.4435 50.4601 50.0547 50.9277 50.9089C51.3953 51.7636 52.0351 53.0838 52.8471 54.8714C53.8561 57.1061 54.9204 58.6837 56.0399 59.6037C57.1589 60.5237 58.5191 60.9837 60.1184 60.9837C61.7666 60.9837 63.1942 60.5695 64.4001 59.741C64.7917 59.4725 65.1816 59.1632 65.5704 58.821C65.6562 58.9533 65.7448 59.0845 65.8404 59.209C66.7504 60.392 67.9689 60.9837 69.4933 60.9837C71.437 60.9837 73.0495 59.8789 74.3285 57.6716C74.6723 58.6965 75.1826 59.5043 75.8604 60.0966C76.5371 60.6878 77.2811 60.9837 78.0931 60.9837C79.1511 60.9837 80.2453 60.5243 81.378 59.6037C81.6216 59.4061 81.8606 59.1934 82.0985 58.9762C82.178 63.4484 82.5465 66.8655 83.2071 69.223C83.9569 71.9049 85.2187 73.2453 86.9895 73.2453C88.3924 73.2453 89.5235 72.4961 90.385 70.9977C91.246 69.4994 91.6767 67.3311 91.6767 64.4918C91.6767 63.2039 91.5713 61.5677 91.3629 59.5831C91.1538 57.5996 90.8895 55.7919 90.5693 54.1618C91.6767 54.3991 92.5256 54.5174 93.1165 54.5174C93.6584 54.5174 94.1502 54.4828 94.5959 54.4175C94.5954 54.4638 94.5919 54.5096 94.5919 54.5565C94.5919 56.4758 95.0468 58.0261 95.9573 59.209C96.8672 60.392 98.0858 60.9837 99.6102 60.9837C101.554 60.9832 103.166 59.8784 104.445 57.671ZM118.01 40.3606C118.539 37.6274 119.167 35.3866 119.893 33.6381C120.619 31.8902 121.277 31.0165 121.868 31.0165C122.557 31.0165 122.902 31.9365 122.902 33.776C122.902 38.0612 120.995 43.0168 117.18 48.6412C117.204 45.855 117.481 43.0955 118.01 40.3606ZM89.3513 36.3987C89.9905 33.757 90.6361 31.6345 91.2886 30.0307C91.9405 28.4279 92.4882 27.6257 92.931 27.6257C93.5461 27.6257 93.8548 28.4279 93.8548 30.0312C93.8288 32.2927 93.2887 34.7167 92.2307 37.3059C91.1722 39.895 89.6588 42.386 87.6904 44.7776C88.1574 41.8339 88.7109 39.0404 89.3513 36.3987ZM48.566 44.264L49.6734 37.7184C49.6976 37.5604 49.7103 37.3371 49.7103 37.0479C49.7103 35.7076 49.0094 35.0371 47.6065 35.0371C45.8593 35.0371 44.8255 35.8912 44.5059 37.5995C44.161 39.4674 43.7918 41.6882 43.3985 44.264H42.4747C41.9829 44.264 41.5464 44.4482 41.1652 44.8161C40.7833 45.184 40.5933 45.6836 40.5933 46.3144C40.5933 46.8403 40.7471 47.3137 41.0546 47.7341C41.3621 48.1556 41.934 48.3649 42.7707 48.3649L41.7745 54.2802C41.6512 55.0422 41.4848 55.5943 41.2763 55.936C41.0678 56.2776 40.8029 56.4484 40.4827 56.4484C40.0641 56.4484 39.6218 56.1464 39.1536 55.5413C38.6854 54.9372 38.292 54.0301 37.9724 52.8209C37.6516 51.6117 37.4927 50.1658 37.4927 48.4827C37.4927 44.8825 37.9966 41.8261 39.0061 39.3156C40.0145 36.8062 41.4237 34.9132 43.2326 33.6376C45.0403 32.3631 47.1504 31.7255 49.5623 31.7255C51.6044 31.7255 53.1541 32.1984 54.2132 33.1446C55.2705 34.0909 55.8003 35.3916 55.8003 37.0479C55.8003 38.4151 55.4738 39.6377 54.8219 40.7146C54.17 41.7937 53.2958 42.6338 52.2016 43.2384C51.1062 43.8441 49.8957 44.1858 48.566 44.264ZM73.4428 53.2541C73.2217 54.3846 72.8646 55.2917 72.3728 55.9756C71.881 56.6595 71.3633 57.0006 70.8225 57.0006C70.2812 57.0006 69.8561 56.8029 69.5492 56.4088C69.2411 56.0141 69.0873 55.4101 69.0873 54.595C69.0873 53.1229 69.3459 51.7301 69.8631 50.4159C70.3791 49.1018 71.0742 48.0433 71.9484 47.2411C72.8214 46.4389 73.7757 46.0253 74.8088 45.9985L73.4428 53.2541ZM100.941 57.0006C100.399 57.0006 99.9748 56.8029 99.6672 56.4088C99.3591 56.0141 99.206 55.4101 99.206 54.595C99.206 53.1229 99.464 51.7301 99.9811 50.4159C100.497 49.1018 101.192 48.0433 102.066 47.2411C102.939 46.4389 103.894 46.0253 104.927 45.9985L103.561 53.2535C103.34 54.384 102.983 55.2912 102.492 55.975C101.998 56.6589 101.481 57.0006 100.941 57.0006Z" fill="white"/>
<path d="M131.465 23.6425C131.465 22.8811 130.997 22.224 130.062 21.6719C129.126 21.1198 127.65 20.8434 125.633 20.844C123.148 20.844 120.551 21.5541 117.845 22.9732C116.984 23.4204 116.369 23.8603 116 24.2935C115.63 24.7272 115.446 25.2341 115.446 25.8119C115.446 26.2591 115.587 26.6465 115.87 26.9748C116.153 27.3041 116.554 27.4677 117.07 27.4677C117.439 27.4677 117.789 27.4024 118.122 27.2701C118.454 27.14 118.94 26.9028 119.579 26.5605C120.588 26.0347 121.511 25.621 122.348 25.3179C123.184 25.0159 124.181 24.864 125.338 24.864C126.272 24.864 127.232 24.9963 128.217 25.2587C128.782 25.3904 129.212 25.4563 129.508 25.4563C130.099 25.4563 130.573 25.2983 130.93 24.9824C131.286 24.6675 131.465 24.2215 131.465 23.6425Z" fill="white"/>
<path d="M175.204 39.8091C176.262 39.8091 177.111 39.4998 177.751 38.8824C178.391 38.2649 178.711 37.4298 178.711 36.3786C178.711 35.5111 178.427 34.8412 177.861 34.3672C177.295 33.8944 176.556 33.6577 175.646 33.6577C174.637 33.6577 173.794 33.9669 173.118 34.5844C172.441 35.2018 172.102 35.9705 172.102 36.8911C172.102 37.8116 172.36 38.5279 172.878 39.0404C173.394 39.5528 174.17 39.8091 175.204 39.8091Z" fill="white"/>
<path d="M215.545 27.4672C215.766 27.4672 216.011 27.4342 216.283 27.3689C216.553 27.303 216.861 27.1914 217.206 27.0328C217.551 26.876 217.784 26.7704 217.907 26.718C218.991 26.1927 220.085 25.7717 221.192 25.4563C222.3 25.1409 223.665 24.9824 225.289 24.9824C225.879 24.9824 226.691 25.075 227.725 25.2587C228.29 25.3904 228.745 25.4563 229.09 25.4563C229.681 25.4563 230.155 25.2983 230.512 24.9824C230.868 24.6669 231.047 24.2209 231.047 23.642C231.047 22.8805 230.579 22.2235 229.644 21.6713C228.709 21.1192 227.232 20.8429 225.215 20.8434C223.664 20.8434 222.096 21.0411 220.509 21.4358C218.923 21.8293 217.525 22.3418 216.32 22.9732C215.459 23.4204 214.844 23.8603 214.474 24.2935C214.105 24.7272 213.921 25.2341 213.921 25.8119C213.921 26.2591 214.062 26.6465 214.345 26.9748C214.628 27.3036 215.028 27.4672 215.545 27.4672Z" fill="white"/>
<path d="M236.399 46.5902C235.883 45.3285 235.107 44.3103 234.074 43.5343C233.04 42.7589 231.797 42.3715 230.345 42.3715C228.844 42.3715 227.491 42.8114 226.285 43.6923C225.078 44.5732 224.126 45.7952 223.424 47.3584C222.722 48.9226 222.373 50.704 222.373 52.7014C222.373 53.2223 222.418 53.7258 222.485 54.2227C221.912 54.8636 221.405 55.366 220.969 55.7188C220.207 56.3362 219.321 56.6455 218.312 56.6455C217.673 56.6455 217.156 56.4088 216.762 55.936C216.368 55.4626 216.085 54.6743 215.913 53.5701C218.644 50.0748 220.834 46.5852 222.483 43.1017C224.131 39.6193 224.956 36.4713 224.956 33.6582C224.956 31.5039 224.606 29.8928 223.904 28.8282C223.203 27.7641 222.249 27.2316 221.044 27.2316C219.001 27.2316 217.229 28.4335 215.729 30.8396C214.227 33.2445 213.089 36.1759 212.314 39.6321C211.538 43.0888 211.151 46.3021 211.151 49.2726C211.151 50.6772 211.237 51.9662 211.404 53.1514C210.396 54.3483 209.284 55.2644 208.068 55.8963C206.653 56.6327 205.257 57.0011 203.88 57.0011C202.625 57.0011 201.677 56.7644 201.037 56.2916C200.397 55.8182 200.077 55.2141 200.077 54.4778C200.077 53.3217 200.816 52.1583 202.293 50.9881C203.769 49.8192 205.626 48.7211 207.866 47.6967C208.653 47.3293 209.231 46.9084 209.601 46.4345C209.971 45.9616 210.155 45.3045 210.155 44.4638C210.155 43.7018 210.025 43.1368 209.767 42.7684C209.509 42.4005 209.183 42.2163 208.789 42.2163C208.543 42.2163 208.242 42.2687 207.886 42.3737C207.529 42.4787 207.288 42.5451 207.166 42.5708C206.476 42.7812 206.009 42.8862 205.762 42.8862C205.049 42.8862 204.169 42.8465 203.124 42.7673C202.078 42.688 201.358 42.6361 200.964 42.6098C199.069 42.4267 197.556 42.3341 196.424 42.3341C195.932 42.3341 195.544 42.578 195.261 43.0643C194.978 43.5499 194.837 44.1082 194.837 44.739C194.837 45.3442 194.978 45.8634 195.261 46.2971C195.543 46.7303 195.956 46.9347 196.497 46.9079L202.55 46.7504C200.114 47.9864 198.243 49.2743 196.94 50.6147C196 51.5805 195.405 52.6512 195.142 53.8224C193.94 55.2309 192.865 56.1386 191.92 56.53C191.969 56.0566 191.994 55.6887 191.994 55.4257C191.994 54.5057 191.791 53.6577 191.385 52.8818C190.979 52.1069 190.381 51.1673 189.595 50.0626C189.054 49.353 188.653 48.7624 188.396 48.2884C188.137 47.8145 188.007 47.3818 188.007 46.9871C188.007 46.3306 188.229 45.5284 188.671 44.5816C188.843 44.2411 188.978 43.8983 189.078 43.5566C189.175 43.2161 189.225 42.9655 189.225 42.8075C189.225 42.5183 189.09 42.3084 188.819 42.1766C188.548 42.0454 188.068 41.9796 187.38 41.9796C185.904 41.9796 184.932 42.5574 184.464 43.7141C183.922 45.0812 183.369 46.4015 182.803 47.6766C182.237 48.9522 181.745 49.9704 181.327 50.733C180.659 51.8557 179.671 53.2803 178.377 54.9964C178.149 55.2476 177.939 55.4721 177.747 55.6602C177.083 56.3178 176.529 56.6461 176.087 56.6461C175.618 56.6461 175.287 56.4367 175.09 56.0152C174.893 55.5954 174.795 54.9903 174.795 54.2015C174.795 53.1765 175.09 51.2187 175.681 48.3269C176.148 45.9354 176.382 44.4102 176.382 43.7532C176.382 42.8599 175.754 42.4133 174.499 42.4133C173.687 42.4133 173.096 42.5708 172.728 42.8867C172.358 43.2016 172.063 43.7805 171.842 44.6212C171.398 46.224 171.035 47.9523 170.752 49.8058C170.517 51.3499 170.385 52.6467 170.346 53.7253C169.689 54.4817 169.115 55.0578 168.629 55.4425C167.916 56.0091 167.165 56.291 166.378 56.291C165.492 56.291 164.717 55.9304 164.053 55.2074C163.388 54.4845 162.674 53.2558 161.911 51.5207C161.37 50.2859 160.89 49.3201 160.472 48.6234C160.053 47.9267 159.543 47.3422 158.94 46.8682C158.337 46.3954 157.569 46.0403 156.633 45.8036C159.34 44.9629 161.838 43.2675 164.126 40.7174C166.416 38.1684 168.174 34.725 169.404 30.3874C169.503 29.9665 169.552 29.6644 169.552 29.4802C169.552 28.8762 169.361 28.4095 168.981 28.0801C168.599 27.7519 168.063 27.5872 167.376 27.5872C166.564 27.5872 165.893 27.7848 165.364 28.1795C164.834 28.5731 164.46 29.1391 164.238 29.8749C163.032 33.8698 161.525 37.0306 159.716 39.3569C157.907 41.6837 155.563 43.0045 152.685 43.3199L154.124 32.7131C155.281 32.7131 155.859 31.9901 155.859 30.5443C155.859 29.4668 155.256 28.7305 154.05 28.3364C152.943 27.969 151.928 27.7195 151.005 27.5872C150.083 27.4565 149.068 27.3896 147.96 27.3896C145.426 27.3896 143.296 27.8038 141.574 28.6322C139.852 29.4607 138.567 30.5582 137.718 31.9243C136.868 33.2914 136.445 34.8026 136.445 36.459C136.445 38.0628 136.814 39.5618 137.552 40.9546C137.922 41.6904 138.499 42.0588 139.287 42.0588C139.901 42.0588 140.462 41.8417 140.966 41.4079C141.471 40.9747 141.723 40.4689 141.723 39.89C141.723 39.6276 141.673 39.3909 141.574 39.1805C141.353 38.6808 141.174 38.2275 141.039 37.8194C140.903 37.4125 140.836 36.8793 140.836 36.2234C140.836 34.7775 141.376 33.6666 142.459 32.8912C143.542 32.1163 145.129 31.7283 147.222 31.7283C147.787 31.7283 148.39 31.7674 149.03 31.8461L147.886 40.7179C147.812 41.2181 147.689 42.1113 147.517 43.3998H146.299C145.807 43.3998 145.395 43.6041 145.063 44.0111C144.731 44.4186 144.565 44.964 144.565 45.6479C144.565 46.253 144.725 46.7259 145.045 47.0675C145.365 47.4086 145.808 47.58 146.374 47.58H146.964L146.448 51.3253C146.152 53.3239 145.654 54.8027 144.953 55.7618C144.251 56.7209 143.408 57.2004 142.424 57.2004C141.563 57.2004 140.843 56.8978 140.265 56.2933C139.687 55.6892 139.016 54.6246 138.253 53.0995C138.056 52.6791 137.848 52.3838 137.626 52.2124C137.404 52.041 137.134 51.9562 136.814 51.9562C136.272 51.9562 135.829 52.2459 135.485 52.8237C135.14 53.402 134.968 54.0848 134.968 54.8736C134.968 55.4257 135.054 55.9382 135.227 56.4116C135.743 57.7788 136.66 58.9031 137.976 59.7829C139.292 60.6638 140.8 61.1037 142.498 61.1037C145.106 61.1037 147.155 60.2758 148.643 58.6195C150.132 56.9632 151.135 54.2562 151.652 50.4969L152.058 47.5783C152.771 47.6581 153.362 47.8742 153.829 48.2292C154.298 48.5849 154.771 49.1894 155.251 50.0436C155.73 50.8977 156.34 52.1923 157.078 53.9274C158.087 56.3457 159.17 58.126 160.327 59.2693C161.483 60.4126 162.972 60.9843 164.793 60.9843C166.441 60.9843 167.869 60.57 169.075 59.7416C169.699 59.3129 170.32 58.7898 170.937 58.174C171.075 58.5313 171.235 58.8635 171.419 59.1699C172.145 60.3791 173.307 60.9837 174.906 60.9832C177.021 60.9832 179.298 59.3932 181.734 56.2117C181.858 56.0582 181.963 55.8846 182.055 55.6976C182.186 55.5262 182.327 55.3621 182.455 55.1879C183.205 54.1629 183.962 52.875 184.724 51.3237C185.069 51.7446 185.437 52.2375 185.832 52.8019C186.225 53.368 186.552 53.9525 186.81 54.5565C187.068 55.1617 187.209 55.8053 187.233 56.4886C187.012 56.4635 186.686 56.4166 186.256 56.3513C185.825 56.286 185.45 56.2519 185.13 56.2519C184.22 56.2519 183.531 56.502 183.063 57.0011C182.595 57.5013 182.361 58.0925 182.361 58.7758C182.361 59.5646 182.699 60.2747 183.377 60.9044C184.054 61.5342 185.031 61.8507 186.309 61.8512C187.663 61.8512 188.832 61.4041 189.816 60.5109C191.463 60.4578 192.848 60.1357 193.969 59.5451C194.572 59.2269 195.191 58.7518 195.826 58.1322C195.875 58.2081 195.911 58.2873 195.963 58.3616C196.615 59.295 197.556 60.0313 198.786 60.5695C200.017 61.1082 201.468 61.3778 203.142 61.3778C205.283 61.3778 207.208 60.9173 208.918 59.9973C210.272 59.2699 211.449 58.3247 212.455 57.1686C212.541 57.3724 212.626 57.5767 212.72 57.7698C213.765 59.913 215.372 60.9837 217.537 60.9837C219.111 60.9837 220.52 60.5371 221.763 59.6433C222.453 59.1471 223.112 58.5654 223.745 57.9144C224.204 58.6569 224.767 59.2989 225.454 59.8203C226.474 60.5963 227.711 60.9837 229.164 60.9826C230.64 60.9826 231.987 60.5427 233.206 59.6618C234.424 58.782 235.39 57.5594 236.103 55.9951C236.817 54.432 237.173 52.6512 237.173 50.6526C237.174 49.2068 236.916 47.8524 236.399 46.5902ZM216.485 40.3606C217.015 37.6274 217.642 35.3866 218.369 33.6381C219.094 31.8902 219.752 31.0165 220.344 31.0165C221.032 31.0165 221.377 31.9365 221.377 33.776C221.377 38.0612 219.47 43.0168 215.656 48.6412C215.68 45.855 215.956 43.0955 216.485 40.3606ZM231.692 55.2649C231.114 56.238 230.406 56.7242 229.571 56.7242C228.833 56.7242 228.216 56.3686 227.725 55.6596C227.233 54.9501 226.987 53.8459 226.987 52.3475C226.987 50.4539 227.276 49.0292 227.855 48.069C228.432 47.1094 229.165 46.6298 230.051 46.6298C230.738 46.6298 231.33 46.9983 231.821 47.7341C232.313 48.4704 232.56 49.5612 232.56 51.0066C232.56 52.8734 232.271 54.2925 231.692 55.2649Z" fill="white"/>
<path d="M101.279 71.1172H104.369L104.369 79.6501H105.298V71.1172H108.387V70.2591H101.279V71.1172Z" fill="white"/>
<path d="M110.356 73.9749V72.5932H109.503V79.6501H110.395V76.055C110.395 74.3913 111.236 73.4524 112.617 73.4524C112.679 73.4524 112.754 73.4658 112.83 73.4658V72.5402C111.612 72.5402 110.771 73.0359 110.356 73.9749Z" fill="white"/>
<path d="M116.935 72.5391C115.076 72.5391 113.708 74.0285 113.708 76.1219C113.708 78.2154 115.114 79.7171 117.174 79.7171C118.217 79.7171 119.134 79.3146 119.724 78.5632L119.222 77.9469C118.719 78.5632 118.004 78.8725 117.199 78.8725C115.755 78.8725 114.7 77.8933 114.6 76.4178H120.125C120.125 76.3106 120.138 76.2029 120.138 76.1225C120.137 74.0022 118.794 72.5391 116.935 72.5391ZM114.599 75.7066C114.712 74.3238 115.653 73.3586 116.935 73.3586C118.228 73.3586 119.17 74.3238 119.283 75.7066H114.599Z" fill="white"/>
<path d="M125.32 72.5402C124.178 72.5402 123.286 73.0365 122.809 73.8951V72.5938H121.956V79.6507H122.848V75.9478C122.848 74.3378 123.74 73.3988 125.159 73.3988C126.413 73.3988 127.143 74.1641 127.143 75.6536V79.6507H128.034V75.5587C128.033 73.5322 126.928 72.5402 125.32 72.5402Z" fill="white"/>
<path d="M133.041 72.5391C131.182 72.5391 129.814 74.0285 129.814 76.1219C129.814 78.2154 131.221 79.7171 133.281 79.7171C134.323 79.7171 135.24 79.3146 135.83 78.5632L135.328 77.9469C134.826 78.5632 134.11 78.8725 133.306 78.8725C131.862 78.8725 130.807 77.8933 130.706 76.4178H136.232C136.232 76.3106 136.244 76.2029 136.244 76.1225C136.243 74.0022 134.9 72.5391 133.041 72.5391ZM130.705 75.7066C130.818 74.3238 131.76 73.3586 133.041 73.3586C134.335 73.3586 135.277 74.3238 135.39 75.7066H130.705Z" fill="white"/>
<path d="M138.916 73.9749V72.5932H138.062V79.6501H138.954V76.055C138.954 74.3913 139.795 73.4524 141.176 73.4524C141.239 73.4524 141.314 73.4658 141.39 73.4658V72.5402C140.172 72.5402 139.331 73.0359 138.916 73.9749Z" fill="white"/>
<path d="M149.864 70.2591H146.574V79.6501H147.503V76.6852H149.864C152.099 76.6852 153.454 75.4777 153.454 73.4786C153.454 71.4661 152.099 70.2591 149.864 70.2591ZM149.839 75.8132H147.503V71.1183H149.839C151.597 71.1183 152.526 71.9763 152.526 73.4792C152.526 74.9552 151.597 75.8132 149.839 75.8132Z" fill="white"/>
<path d="M157.797 72.5391C155.938 72.5391 154.569 74.0285 154.569 76.1219C154.569 78.2154 155.976 79.7171 158.036 79.7171C159.079 79.7171 159.995 79.3146 160.585 78.5632L160.083 77.9469C159.581 78.5632 158.865 78.8725 158.06 78.8725C156.617 78.8725 155.562 77.8933 155.461 76.4178H160.987C160.987 76.3106 160.999 76.2029 160.999 76.1225C161 74.0022 159.656 72.5391 157.797 72.5391ZM155.461 75.7066C155.574 74.3238 156.516 73.3586 157.797 73.3586C159.09 73.3586 160.033 74.3238 160.145 75.7066H155.461Z" fill="white"/>
<path d="M163.671 73.9749V72.5932H162.818V79.6501H163.71V76.055C163.71 74.3913 164.551 73.4524 165.932 73.4524C165.994 73.4524 166.069 73.4658 166.145 73.4658V72.5402C164.928 72.5402 164.087 73.0359 163.671 73.9749Z" fill="white"/>
<path d="M168.014 74.5248C168.014 73.8543 168.542 73.3575 169.734 73.3575C170.413 73.3575 171.103 73.5322 171.681 73.9615L172.07 73.1967C171.518 72.7936 170.588 72.5385 169.734 72.5385C168.052 72.5385 167.123 73.3977 167.123 74.551C167.123 77.3417 171.406 75.8931 171.406 77.7308C171.406 78.4287 170.89 78.8848 169.635 78.8848C168.706 78.8848 167.814 78.5358 167.287 78.0931L166.885 78.8446C167.426 79.3408 168.481 79.7166 169.573 79.7166C171.293 79.7166 172.297 78.9249 172.297 77.7046C172.297 74.9943 168.014 76.4301 168.014 74.5248Z" fill="white"/>
<path d="M176.641 72.5391C174.706 72.5391 173.274 74.0285 173.274 76.1219C173.274 78.2154 174.706 79.7171 176.641 79.7171C178.574 79.7171 179.993 78.2154 179.993 76.1219C179.993 74.0285 178.574 72.5391 176.641 72.5391ZM176.641 78.8725C175.234 78.8725 174.18 77.7716 174.18 76.1219C174.18 74.4723 175.234 73.372 176.641 73.372C178.046 73.372 179.089 74.4717 179.089 76.1219C179.089 77.7716 178.046 78.8725 176.641 78.8725Z" fill="white"/>
<path d="M185.176 72.5402C184.034 72.5402 183.142 73.0365 182.665 73.8951V72.5938H181.811V79.6507H182.704V75.9478C182.704 74.3378 183.596 73.3988 185.015 73.3988C186.27 73.3988 186.998 74.1641 186.998 75.6536V79.6507H187.889V75.5587C187.889 73.5322 186.784 72.5402 185.176 72.5402Z" fill="white"/>
<path d="M192.622 72.5402C191.579 72.5402 190.6 72.8891 189.935 73.4931L190.336 74.2032C190.876 73.6935 191.68 73.372 192.533 73.372C193.764 73.372 194.404 74.0285 194.404 75.2365V75.6658H192.307C190.411 75.6658 189.757 76.578 189.757 77.665C189.757 78.8864 190.674 79.7177 192.169 79.7177C193.261 79.7177 194.04 79.275 194.441 78.5504V79.6507H195.295V75.2767C195.295 73.4524 194.329 72.5402 192.622 72.5402ZM194.404 77.5304C194.052 78.456 193.311 78.9663 192.307 78.9663C191.252 78.9663 190.637 78.4566 190.637 77.6382C190.637 76.9135 191.051 76.3765 192.332 76.3765H194.404V77.5304Z" fill="white"/>
<path d="M198.609 69.6953H197.716V79.6501H198.609V69.6953Z" fill="white"/>
<path d="M204.458 72.5402C203.316 72.5402 202.424 73.0365 201.947 73.8951V72.5938H201.094V79.6507H201.986V75.9478C201.986 74.3378 202.877 73.3988 204.296 73.3988C205.552 73.3988 206.28 74.1641 206.28 75.6536V79.6507H207.171V75.5587C207.171 73.5322 206.066 72.5402 204.458 72.5402Z" fill="white"/>
<path d="M211.653 78.5917L209.167 72.5943H208.237L211.188 79.6378L210.9 80.3223C210.524 81.2082 210.121 81.503 209.531 81.503C209.054 81.503 208.652 81.3154 208.326 80.9665L207.911 81.6771C208.312 82.1064 208.903 82.3203 209.518 82.3203C210.459 82.3203 211.162 81.8776 211.715 80.4948L215.017 72.5938H214.139L211.653 78.5917Z" fill="white"/>
<path d="M229.562 73.2977L230.112 70.7616C230.43 69.304 229.468 67.872 227.964 67.5644C227.775 67.5254 227.583 67.5064 227.389 67.5064H222.884C221.347 67.5064 220.1 68.7144 220.1 70.2044C220.1 70.392 220.12 70.5773 220.16 70.7605L220.71 73.2966C218.375 75.6664 218.465 79.4235 220.911 81.6861C221.151 81.9088 221.41 82.1131 221.688 82.2963V82.2979C221.731 82.3258 221.78 82.3392 221.831 82.3392H228.442C228.494 82.3392 228.543 82.3258 228.585 82.2979C231.379 80.4501 232.098 76.7584 230.192 74.0514C230.003 73.784 229.794 73.5322 229.562 73.2977ZM220.657 70.6594C220.515 70.009 220.684 69.3319 221.117 68.8166C221.548 68.2997 222.198 67.9999 222.882 68.001H227.388C228.645 68.001 229.661 68.9886 229.661 70.2055C229.661 70.3574 229.646 70.5098 229.612 70.6594L229.546 70.9681H228.412L228.503 70.43C228.619 69.7562 228.151 69.1192 227.456 69.0075C227.387 68.9958 227.317 68.9908 227.247 68.9908H223.024C222.319 68.9908 221.748 69.544 221.748 70.2268C221.748 70.2949 221.755 70.3624 221.765 70.43L221.858 70.9681H220.723L220.657 70.6594ZM228.012 70.2256C228.012 70.2664 228.009 70.3071 228.002 70.3473L227.715 72.0132C226.077 71.2897 224.194 71.2897 222.556 72.0132L222.27 70.3496C222.199 69.9448 222.48 69.5624 222.897 69.4943C222.939 69.4871 222.981 69.4837 223.025 69.4837H227.248C227.669 69.4848 228.013 69.8164 228.012 70.2256ZM229.103 81.2434C228.875 81.4645 228.626 81.666 228.361 81.8463H221.909C219.373 80.1191 218.762 76.7271 220.544 74.2685C220.729 74.0129 220.939 73.7722 221.166 73.5506C221.227 73.4926 221.254 73.4071 221.237 73.3262L220.833 71.4633H221.945L222.111 72.4274C222.13 72.5469 222.238 72.6334 222.363 72.6334C222.404 72.6334 222.447 72.6239 222.483 72.6038C224.141 71.7424 226.133 71.7424 227.79 72.6038C227.915 72.6686 228.068 72.6239 228.137 72.5033C228.15 72.4793 228.159 72.4531 228.164 72.4263L228.329 71.4616H229.441L229.038 73.324C229.02 73.4055 229.046 73.4909 229.106 73.5495C231.294 75.6748 231.294 79.1181 229.103 81.2434Z" fill="white"/>
</svg>
